<?xml version="1.0" encoding="utf-8"?>
<!-- Generator: Adobe Illustrator 26.5.0, SVG Export Plug-In . SVG Version: 6.00 Build 0)  -->
<svg version="1.1" id="Layer_1" xmlns="http://www.w3.org/2000/svg" xmlns:xlink="http://www.w3.org/1999/xlink" x="0px" y="0px"
	 viewBox="0 0 1699 242.1" style="enable-background:new 0 0 1699 242.1;" xml:space="preserve">
<style type="text/css">
	.st0{fill:var(--colorlogo1);}
	.st1{fill:var(--colorlogo2);}
</style>
<g id="_x32_cizr1.tif">
	<g>
		<path class="st0" d="M6.3,28.8c0.2-4.8,0.3-9.4,0.4-13.9c0-1.2-0.6-1.4-1.5-1.1c-2.1,0.7-3.4-0.6-4.7-1.8c-0.9-0.9-0.8-2.3,0.3-3
			C1.7,8.4,2.6,8,3.5,8C9.7,7.9,16,8,22.2,7.9c2.4,0,4.8-0.4,7.2-0.6C35.6,6.6,41.7,6,47.9,5.5c5.9-0.5,11.7-0.8,17.6-1.1
			c2.5-0.1,5-0.2,7.5-0.3c6.8-0.3,13.7-0.8,20.5-1c6.8-0.2,13.5-0.2,20.3-0.2c4.6-0.1,9.1-0.2,13.7-0.2c6.3-0.1,12.5-0.2,18.8-0.2
			c4.5,0,8.9,0.1,13.4,0.2c6.8,0.2,13.5,0.3,20.3,0.4c0.4,0,0.9-0.6,1.1-1c0.3-0.6,0.5-1.3,0.7-2c0.8,0.6,1.5,1,2.1,1.4
			c-0.2,1.7,0,1.8,1.7,1.7c2.8-0.1,5.6,0,8.4,0.1c3.4,0.1,6.7,0.5,10.1,0.6c3.6,0.2,7.3,0.3,10.9,0.5c5.2,0.3,10.3,0.8,15.5,1.1
			c2.2,0.1,4.4,0,6.6,0.1c1.5,0,2.9,0,4.1,1.3c0.4,0.5,1.4,0.5,2.1,0.6c0.2,0,0.4,0,0.6,0c3.5,0.1,4.2,1,2.9,4.3
			c1.7,1.9,2.4,4.1,2.2,6.7c-0.1,1.8,0.5,3.6,0.7,5.4c0.3,2.3,0.7,4.6,1,6.9c0.2,1.7,0.2,3.5,0.3,5.2c0.1,2.2,0.6,2.5,2.7,2.8
			c0.8,0.1,1.7,1,2.2,1.8c0.2,0.4-0.1,1.3-0.5,1.9c-0.4,0.7-1.1,1.2-1.8,1.7c-3.1,2.3-1.7,5.4-1.7,8.3c0,4.3,0.4,8.7,0.4,13
			c0,2.5-0.2,2.5,2.3,2.5c1.2,0,2.3-0.1,3,1.3c0.6,1.4,0.5,2.5-0.8,3.3c-0.9,0.5-1.9,0.8-2.9,0.9c-0.7,0.1-1.1,0.3-1.1,1.1
			c0,2.6-0.4,5.2-0.1,7.8c0.2,1.8,1.1,3.6,1.7,5.3c0.3,0.8,0.7,1.5,0.7,2.3c0.1,0.7,0,1.6-0.4,2c-2.4,1.9-2.1,4.5-2.1,7
			c0,2.7,0,5.5,0,8.2c0.1,3.5,0.2,7.1,0.3,10.6c0,4.2-0.1,8.4,0,12.6c0.1,4.7,0.4,9.3,0.6,14c0,0.4,0,0.7,0.1,1.1
			c0.4,5.5,0.7,11,1.1,16.5c0.3,3.1,0.5,6.2,1.2,9.2c0.7,3,0.4,5.9,0.6,8.8c0.1,1.9,0.1,3.8,0.5,5.6c0.3,1.7-0.3,2.8-1.7,3.5
			c-0.9,0.4-1.3,1-1.3,2c-0.3,6.1-0.8,12.2-1,18.4c-0.2,4.8-0.1,9.7,0,14.6c0,1.6,0.2,3.3,0.4,4.9c0.1,0.9,0.4,1.7-0.5,2.2
			c-1.1,0.6-2.1,1.6-3.5,0.7c-0.9-0.6-1.7-1.1-2.6-1.6c-2.9-1.7-6-0.8-9-0.7c-5.5,0.2-11,0.3-16.5,0.4c-1.7,0-3.5-0.2-5.2-0.2
			c-7,0-14.1,0-21.1,0.2c-3.9,0.1-7.7,0.8-11.5,1.4c-3.9,0.5-7.8,1.1-11.6,1.8c-7.6,1.3-15.2,2.8-22.8,4c-4.8,0.8-9.7,1.3-14.6,1.9
			c-3.6,0.5-7.3,1-10.9,1.3c-4.1,0.4-8.1,0.8-12.2,1.1c-3.3,0.2-6.6,0.6-9.9,0.5c-6.3-0.2-12.6-0.7-19-1.1c-1.2-0.1-2.4-0.3-3.5-0.2
			c-1,0.1-1.9,0.4-2.9,0.7c-0.8,0.2-1.7,0.4-2.5,0.4c-1.8,0-3.7-0.3-5.5-0.3c-5.3-0.1-10.6,0-16-0.3c-6.4-0.4-12.7-1.2-19.1-1.7
			c-3.8-0.3-7.6-0.5-11.5-0.7c-3.1-0.1-6.1-0.1-9.2,0c-2.2,0.1-4.5,0.3-6.7,0.6c-2.3,0.3-4.4-1.4-4.3-3.6c0.1-1.1,1.3-2.2,2.8-2.4
			c2.5-0.3,2.6-0.3,2.6-3c0-8.1-0.2-16.1-0.2-24.2c0-6.8,0.1-13.6,0.2-20.4c0.1-6.4,0.2-12.8,0.2-19.2c0-7.4-0.2-14.9-0.2-22.3
			c0-2.7-0.1-5.4-0.1-8.1c-0.1-4.4-0.1-8.8-0.2-13.2c-0.2-9.4-0.5-18.8-0.7-28.3c-0.1-3.2,0-6.5,0-9.7c-0.1-4.6-0.2-9.3-0.2-13.9
			c0-5.5,0.2-11,0.2-16.5c0-0.9-0.4-2-0.9-2.8c-0.9-1.5-0.9-2.4,0.4-3.6c0.3-0.3,0.5-0.8,0.5-1.1c0.2-4.2,0.2-8.5,0.5-12.7
			c0.1-1.4-0.3-2.2-1.8-1.9c-0.1,0-0.2,0-0.3,0c-1.8-0.2-2.9-1.1-2.8-2.3c0.1-1,1.9-1.9,3.4-1.6C5.1,28.7,5.6,28.7,6.3,28.8z
			 M115.6,87.2c-0.1,1.1,0,2-0.2,2.7c-0.9,2.9-1.9,5.8-2.9,8.7c-0.8,2.4-1.8,4.7-2.3,7.1c-1.3,6.2-2.4,12.4-3.6,18.6
			c-0.7,3.3-1.4,6.6-2.1,9.9c-0.3,1.2-0.3,2.4-0.6,3.6c-0.7,2.5-1.7,4.9-2.5,7.4c-1.5,4.6-2.7,9.3-4.3,13.9
			c-2.2,6.4-4.7,12.8-6.9,19.2c-1.9,5.7-3.6,11.6-5.5,17.4c-1.8,5.6-3.8,11.2-5.7,16.8c-1.2,3.7-2.3,7.4-3.5,11
			c-0.4,1.1,0,1.8,1,2.2c1.9,0.6,3.9,1.1,5.8,1.8c4.7,1.6,9.6,1.7,14.4,1.8c5.3,0.1,10.6-0.7,15.9-0.7c7,0,13.9-1,20.6-2.9
			c2.2-0.6,4.3-1.2,6.5-1.8c1.6-0.5,3.2-0.9,4.8-1.5c1-0.4,1.5-1.2,1.4-2.3c-0.1-0.9,0-1.9,0.1-2.8c0.9-5.6,1.9-11.1,2.6-16.8
			c0.4-3.4,0.5-6.9,0.4-10.4c0-2-0.8-4-0.9-6c-0.3-3.3-0.6-6.7-0.3-10c0.2-2.6,1.2-5.3,2.1-7.8c0.4-1.2,1.8-1.8,2.9-1.3
			c0.9,0.3,2,1.3,2.1,2.1c0.2,3.7,0.2,7.5,0,11.2c-0.3,5.6-0.7,11.2-1.1,16.8c-0.2,3.3-0.2,6.7-0.5,10c-0.5,5.8,0.3,11.4,1.6,17
			c0.7,3,0.8,2.9,3.9,2.5c1.1-0.1,1.5-0.6,1.6-1.5c0.3-2.4,0.5-4.9,0.6-7.3c0.2-4.5,0.2-9.1,0.6-13.6c0.3-3.8,1.1-7.6,1.5-11.4
			c0.5-5.1,0.6-10.2,1-15.3c0.1-1.3,1-1.8,2.2-1.8c1.3,0,2.5-0.1,2.8,1.7c0.4,2.2,0.9,4.3,1.3,6.4c1,4.7,2.1,9.4,2.8,14.1
			c0.5,3.5,0.5,7.1,0.6,10.7c0.1,3.4-0.1,6.7-0.2,10.1c-0.1,1.5,0.9,2.1,2.1,2c2.5-0.1,5-0.4,7.5-0.7c0.9-0.1,1.4-0.7,1-1.8
			c-0.2-0.8-0.1-1.7-0.2-2.6c0-1.2,0.2-2.5-0.1-3.7c-0.7-4-1.6-7.9-2.4-11.9c-0.2-1,0.1-2.1-0.1-3.2c-0.3-2.6-0.7-5.1-1.1-7.7
			c-0.5-3.7-1-7.5-1.4-11.2c-0.3-3.2-0.5-6.5-0.7-9.8c-0.2-3.7-0.2-7.3-0.6-11c-0.5-5.5-1.3-11-1.9-16.6c-0.3-2.3-0.5-4.6-0.6-6.9
			c-0.1-1-0.7-1.4-1.5-1.9c-1-0.7-2.2-1.5-2.5-2.5c-1.2-4.8-2.4-9.6-3-14.5c-0.6-4.9-0.4-9.8-0.8-14.7c-0.2-2.7-0.9-5.3-1.4-7.9
			c-0.2-1-0.9-1.4-1.9-1.4c-3.8,0.2-7.7,0.5-11.5,0.5c-7.3-0.1-14.5-0.2-21.8-0.5c-3.5-0.1-7-0.5-10.5-0.9
			C118.8,87.8,117.2,87.5,115.6,87.2z M51.4,40.1c0.4,0.9,0.6,1.3,0.9,1.8c-0.5,0.2-1,0.3-1.4,0.5c-0.7,0.3-1.6,0.5-2.1,1.1
			c-1.8,2.1-3.4,4.3-5.1,6.5C37.9,57.9,33.5,66.6,30,75.7C27.6,82,25.8,88.5,24,95c-1,3.8-1.3,7.7-0.7,11.7
			c0.8,6.2,1.3,12.4,2.3,18.5c0.4,2.5,1.3,5.1,2.6,7.3c1.6,2.5,3.9,4.6,5.8,6.9c0.9,1.1,1.9,1.2,3.1,1.2c1.2,0,2.5-0.2,3.6,0.2
			c1.5,0.5,2.9,0.5,4.3,0.1c0.4-0.1,0.9-0.1,1.4-0.2c2.6-0.4,5.3-0.7,7.9-1.1c2.6-0.4,5.3-1.3,7.9-1.2c6.6,0.2,12.8-1.2,19-2.9
			c0.2-0.1,0.4-0.3,0.8-0.6c-3.1-1.1-6-2.1-9.1-1.4c-0.9,0.2-1.9,0.1-2.7-0.1c-2.9-0.6-5.8-1.5-8.8-2c-4.1-0.7-8.2-0.8-11.9-2.9
			c-0.5-0.3-1.1-0.3-1.6-0.3c-1.2,0-2.5,0-3.7,0c-1.9-0.1-2.6-1-2.4-2.9c0.1-0.6,0.1-1.1-0.1-1.7c-0.5-2.4-1.2-4.8-1.4-7.2
			c-0.4-4.7-1.5-9.3-2.7-13.9c-0.4-1.4-0.7-2.9,0.5-4.2c1.8-1.9,3.6-3.7,5.3-5.7c1.4-1.6,2.5-3.5,4-4.9c4-3.6,8.8-5.6,13.9-7.3
			c1-0.3,1.9-1,2.8-1.6c0.9-0.5,1.8-1.1,2.8-1.6c1.2-0.5,2.4-0.9,3.6-1.3c2.6-0.9,5.2-1.8,7.8-2.7c1.3-0.5,2.5-1,3.8-1.7
			c1.6-0.8,3.2-1.8,4.9-2.6c1.8-0.9,3.8-1.4,5.5-2.3c2.5-1.4,4.8-3.1,7.6-4.1c2.8-0.9,5.4-2.5,8.5-1.7c0.5,0.1,1-0.2,1.5-0.1
			c0.9,0.1,1.7,0.4,2.6,0.5c-0.3,0.7-0.5,1.4-0.8,2.2c0,0.1,0,0.2,0,0.5c1.5,1.4,3.2,2.9,4.8,4.3c1.3,1.2,2.6,2.4,4.1,3.4
			c1.2,0.8,2.6,1.3,4,1.9c1.3,0.6,2.6,1.1,3.9,1.7c1.5,0.7,3.2,1.2,4.2,2.4c2,2.4,4.4,2.6,7.2,2.4c4.7-0.4,9.4-0.5,14.1-0.8
			c3.6-0.2,7.2-0.3,10.8-0.6c2-0.2,3.9-0.8,5.9-0.9c5.6-0.4,11.2-0.6,16.9-0.9c1.4-0.1,2.9-0.2,4.1,0.4c3.7,1.9,7.6,2.6,11.7,2.5
			c1.7-0.1,3,0.4,3.7,2.1c0.2,0.4,0.6,0.9,1,1.2c3.1,2,6.2,4,10.2,4.2c3,0.1,6.4-0.3,7.9,3.5c0.1,0.2,0.3,0.3,0.4,0.5
			c0.9,1.3,0.8,2.5,0,3.9c-0.6,1-1.1,2.1-1.3,3.2c-0.6,2.6-1.1,5.3-1.7,7.9c-0.1,0.6-0.5,1.2-0.8,1.8c2.5-0.7,4.8-1.6,7-2.5
			c3.5-1.4,7-2.7,10.5-4c1-0.4,1.3-0.9,0.9-1.9c-1.2-2.8-2.2-5.7-3.3-8.6c-2.3-6-4.8-11.7-9.7-16.1c-2.7-2.4-5.4-4.4-9.3-3.9
			c-0.7,0.1-1.5-0.2-2.2-0.5c-0.4-0.2-0.8-0.9-0.7-1.3c0.4-1.7-0.6-2.5-1.9-2.9c-3.3-1.1-5.9-3.1-8.7-5.1c-0.9-0.6-1.8-1.2-2.5-2
			c-0.9-1-1.8-1.5-3.2-1.4c-1,0.1-2.1,0-3-0.4c-1.7-0.7-3.6-1.5-5-2.6c-1.4-1.1-3.8-1.3-4.1-3.6c0-0.1-0.3-0.3-0.5-0.3
			c-1.4-0.7-2.7-1.6-4.1-2.1c-3.4-1.1-6.1-3.2-8.3-5.9c-0.3-0.3-0.7-0.6-1.1-0.9c-0.7-0.6-1.5-1.1-2-1.9c-1-1.3-2.2-2-3.8-1.9
			c-2.8,0.2-5-0.8-6.8-2.9c-0.7-0.8-1.4-1.5-2.1-2.2c-1.9-1.7-3.3-4-6.2-4.2c-0.8-0.1-1.7-0.4-2.5-0.6c-2.3-0.6-4.5-0.4-6.7,0.5
			c-1.2,0.5-2.7,0.4-4.1,0.3c-2.3-0.1-4.6-0.5-7-0.7c-0.8-0.1-1.6,0-2.3-0.2c-3.5-1-6.9-2.2-10.4-3.2c-3-0.9-6.1-1.9-9.2-2.3
			c-3.7-0.5-7.5-0.6-11.3-0.6c-4.6,0-9.2,0.1-13.7,0.5c-4.2,0.4-8.4,0.9-12.4,2.1c-4.5,1.3-8.6,3.9-12.3,6.9
			c-0.3,0.3-0.6,0.9-0.5,1.4c0.3,2.6-0.8,3.8-3.5,3.4c-0.6-0.1-1.4-0.1-1.7,0.2C53.8,37.6,52.5,38.9,51.4,40.1z M232.7,202.3
			c0.2-0.1,0.4-0.2,0.6-0.3c0.1-0.5,0.2-1,0.3-1.4c0.3-2.3,0.4-4.7,0.8-7c0.3-2,0.9-3.9,1.5-5.8c0.4-1.4,0.9-2.9,1.7-4
			c1.5-2.1,1.6-6.5,0.1-8.5c-4.9-6.3-9.8-12.7-14.8-19c-2.2-2.7-4.7-5-7-7.6c-0.3-0.4-0.4-1.4-0.2-1.8c1-1.7,2.6-1.8,4.1-0.5
			c1.1,1,2.3,1.8,3.5,2.7c1,0.8,2.2,1.4,2.9,2.4c1.5,2,2.8,4.2,4.2,6.2c2.7,3.8,5.2,7.8,8.1,11.3c3,3.6,6.5,6.9,9.8,10.3
			c0.7,0.7,1.6,1.3,2.3,2c0.2-0.1,0.3-0.2,0.5-0.3c-0.8-3.3,1.3-7-1.9-9.9c-0.1-0.1-0.1-0.2-0.2-0.3c-0.7-1.4-0.2-2.2,1.3-2.5
			c0.3-0.1,0.9-0.6,0.8-0.9c-0.4-4.9-0.9-9.7-1.3-14.6c-0.3-4.3-0.5-8.6-0.7-12.9c-0.2-5.9-0.5-11.8-0.6-17.6
			c-0.1-4.5-0.2-9.1-0.3-13.6c0-0.3-0.1-0.8-0.3-1c-0.9-0.7-1-1.6-1-2.6c-0.1-1-0.5-1.8-1.8-1.4c-2.8,0.9-5.6,1.6-8.3,2.6
			c-8.8,3.2-17.6,6.5-26.3,9.8c-0.6,0.2-1.4,0.4-1.7,0.9c-1.2,1.9-2.9,1.7-4.8,1.5c-0.6-0.1-1.2,0.2-1.8,0.3c0,0.2,0,0.3,0,0.5
			c0.6,0.4,1.2,0.8,1.9,1.3c1.2,0.9,1.2,2-0.2,2.7c-1.7,0.9-3.3,0.7-5,0c-2.3-1-4.4-2.3-7.2-0.8c-3.2,1.7-6.7,2.8-10.1,4.2
			c-1.5,0.6-2.4,1.5-2.2,3.3c0.3,2.7,0.2,5.5,0.4,8.3c0.2,2.9,0.4,5.8,0.9,8.7c1.1,6.1,1.9,12.2,1.8,18.4c0,3.8,0.4,7.6,0.9,11.4
			c0.5,4.2,1.4,8.3,2.1,12.5c0.4,2,0.4,4.2,1.3,5.9c1,1.9,1.4,3.8,1.2,5.8c0,0.5,0,1,0,1.5c0.6,4.3,1.2,8.5,1.8,12.9
			c1.8-0.8,3.4-1.5,5.1-2.1c5.1-1.7,9.9-4,14.1-7.3c0.4-0.3,0.8-1,0.9-1.5c0.1-1,0.2-2.1-0.1-3.1c-1.2-3.9-2.4-7.8-3.9-11.6
			c-2.2-5.4-4.8-10.6-7.1-16c-0.9-2-1.4-4.2-2-6.3c-0.9-3.2-1.9-6.4-2.6-9.6c-0.9-4.3-1.6-8.7-2.5-13.1c-0.4-1.9-1.2-3.7-1.8-5.5
			c-0.3-0.8-0.9-2.1-0.6-2.3c0.8-0.6,1.8-1,2.9-1.1c0.5-0.1,1.3,0.4,1.7,0.9c1.2,1.4,2.4,2.8,3.3,4.4c1.6,3.1,2.8,6.4,4.5,9.4
			c2.5,4.6,5.2,9.2,7.8,13.7c2.4,4.2,4.9,8.4,7.4,12.6c3.7,6.2,7.4,12.4,11.2,18.5C229.7,197.8,231.3,200,232.7,202.3z M196.7,151.4
			c-0.2,0.1-0.3,0.1-0.5,0.2c0.6,2.5,1.1,5,1.9,7.5c1.9,6,3.8,12,6,17.8c1.7,4.5,4.1,8.8,6.1,13.2c2,4.4,3.8,8.8,4.8,13.5
			c0.3,1.6,0.6,2.9-0.8,3.9c-3.2,2.1-6.2,4.4-9.6,6c-4.2,2-8.6,3.4-12.9,5.2c-0.9,0.4-1.6,1.3-2.4,1.9c-0.7,0.5-1.4,1.2-2.1,1.4
			c-1.6,0.3-3.4,0.2-5,0.6c-4.1,0.9-8.1,2-12.2,3c-1.9,0.4-3.8,0.7-5.7,1.1c-0.6,0.1-1.2,0.6-1.5,1.1c-2.1,4.1-6.7,4.9-10.1,1.9
			c-0.5-0.5-1.6-0.8-2.3-0.7c-1.8,0.2-3.6,0.9-5.4,1.1c-8.3,1-16.5,1.9-24.8,2.7c-4.8,0.5-9.7,0.9-14.5,1.3
			c-3.2,0.2-6.3,0.6-9.5,0.5c-4.2-0.2-8.4-0.8-12.6-1.5c-3.3-0.5-6.5-1.1-9.7-2.1c-2.8-0.9-5.4-1.8-8.4-2.1
			c-1.3-0.1-2.7-0.9-3.8-1.7c-1-0.8-1-2.7-2.9-2.6c-0.1,0-0.2-0.3-0.4-0.5c1.1-0.5,2.1-1,1.8-2.5c-0.6-2.4-0.6-4.7,0-7.1
			c0.8-3.4,1.5-6.9,2.2-10.3c0.3-1.2,0.8-2.5,0.9-3.7c0.5-5,1.8-9.8,3.4-14.5c1.9-5.5,3.7-10.9,4.3-16.7c0.1-0.5-0.1-1-0.1-1.5
			c-0.6,0.4-0.9,0.8-1.1,1.2c-2.8,6.2-5.6,12.3-8.3,18.5c-2.4,5.4-4.5,11-6.9,16.4c-2.7,6-5.7,11.9-8.4,17.9c-0.8,1.9-2,3-3.9,3.4
			c-0.9,0.2-1.8,0.1-2.7,0c-3.3-0.3-4.1-1.3-3.7-4.5c0.6-4.2,1.1-8.5,1.7-12.7c0.1-0.6-0.1-1.3,0.1-1.8c0.8-1.7,1.5-3.5,2.5-5.1
			c2-3.1,3-6.6,3.2-10.3c0.3-4.8,1.2-9.5,2.9-14c1.8-4.6,4-9.1,5.9-13.6c0.2-0.4,0.4-0.9,0.5-1.3c-0.7,0.1-1.1,0.3-1.5,0.6
			c-1.9,1.9-3.8,3.8-5.5,5.8c-1.6,1.9-2.9,4.1-4.3,6.1c-0.3,0.4-0.2,1.1-0.2,1.7c0,0.9,0.3,1.9,0,2.6c-0.9,1.9-2.2,3.7-3.1,5.6
			c-2.5,5.5-5.2,10.9-7.4,16.5c-1.8,4.4-7,6.3-10.6,2.2c-0.7-0.8-1.6-1.6-1.8-2.6c-0.4-1.7-0.4-3.4-0.5-5.2
			c-0.3-5.1,1.2-9.8,2.7-14.6c0.2-0.8,0.4-1.6,0.7-2.6c-2.9,1.9-5.4,3.6-8.1,5.3c-0.8,0.5-1,1-1,1.8c0,7.9-0.1,15.9-0.1,23.8
			c0,7,0.1,14,0.2,20.9c0,3.3,0,3.3,3.4,3.4c3.3,0.1,6.6,0.3,9.9,0.7c7,0.7,13.9,1.5,20.9,2.3c1.2,0.1,1.6-0.2,2-1.3
			c0.2-0.7,0.8-1.5,1.4-1.7c1-0.4,1.2,0.7,1.6,1.4c0.5,0.8,1.2,2,2,2c3,0.3,6,0.3,9,0.3c7.3,0,14.6-0.1,22,0.1
			c4.8,0.1,9.6,0.8,14.4,1.1c8.2,0.4,16.3-0.4,24.4-1.2c6.2-0.6,12.3-1.3,18.4-1.9c2-0.2,4-0.4,5.9-0.8c6.4-1.1,12.8-2.4,19.3-3.5
			c5.4-0.9,10.8-1.8,16.2-2.4c5.3-0.7,10.6-1.3,16-1.6c4.8-0.3,9.7-0.1,14.5,0c3,0,6,0.3,9,0.4c3,0.1,6,0.5,9,0.4
			c3.2-0.1,6.3-0.7,9.4-1.1c2-0.2,4-0.3,5.9-0.6c1.4-0.2,2.2-0.9,2.2-2.6c-0.1-6.5-0.1-13,0-19.6c0-2,0.1-4,0.3-6
			c0.3-3.5,0.7-6.9,0.9-10.4c0-0.6-0.3-1.3-0.8-1.7c-1.9-1.7-3.8-3.3-5.7-4.9c-0.2-0.2-0.5-0.3-1-0.5c0,0.4,0,0.6,0,0.8
			c0.1,1.7-0.1,3.1-1.6,4.3c-1,0.9-1.9,2.3-2.3,3.7c-0.8,2.5-1.3,5.1-1.6,7.8c-0.3,2.8-0.4,5.6-0.2,8.4c0.1,1.6-0.3,2.6-1.6,3.2
			c-1.5,0.7-3.2,0.5-4.1-0.6c-1.8-2.2-3.6-4.4-5.1-6.9c-4.3-6.9-8.4-13.9-12.5-21c-5.5-9.4-10.9-18.9-16.4-28.3
			C197.2,152,196.9,151.7,196.7,151.4z M209.5,54.8c0.1,0.1,0.2,0.2,0.3,0.3c0.8-0.3,1.6-0.7,2.5-1c4.8-1.8,9.6-3.7,14.5-5.4
			c2.8-1,5.7-1.5,8.5-2.4c3.6-1.2,7-2.7,10.6-4.1c0.9-0.3,1.1-0.9,1-1.8c-0.8-6.6-1.6-13.2-2.4-19.9c-0.3-2.2-0.3-2.2-2.6-2.4
			c-2.3-0.1-2.8-0.8-2-3c0.5-1.5,1.2-2.9,1.8-4.2c-1.2,0.1-2.3,0.1-3.3,0.3c-0.4,0.1-0.9,0.5-1.2,0.8c-0.9,1.2-1.8,2.5-2.6,3.8
			c-1.4,2.3-2.5,4.7-3.9,6.9c-1.6,2.6-3.3,5-4.9,7.6c-0.2,0.4-0.2,1.1,0,1.5c0.9,1.6,0.7,2.3-0.7,3.5c-2.5,2.2-5.1,4.3-7.3,6.7
			c-2,2.2-3.6,4.8-5.3,7.3C211.3,51.1,210.5,53,209.5,54.8z M66,87.8c-0.5,0.2-0.9,0.4-1.2,0.6c-3.8,2.6-7.7,5-11.4,7.8
			c-2.1,1.6-4.3,3.5-4.7,6.4c-0.1,1.2,0.7,2.5,0.6,3.6c-0.2,1.6,0.7,1.5,1.6,1.5c1.5,0,3-0.3,4.4-0.2c5.4,0.3,10.6-1.3,15.9-2.1
			c4-0.6,7.9-1.3,11.9-2c3.6-0.6,7.3-1,10.9-1.6c3.9-0.7,7.8-1.6,11.6-2.4c1.2-0.3,1.4-1.3,1.5-2.2c0-0.5-0.2-1.4-0.5-1.5
			c-1.4-0.5-2.9-0.8-4.3-1c-5.5-0.7-11.1-1.2-16.6-2c-3.1-0.4-6.2-1.3-9.3-1.6c-2.2-0.3-4.5-0.1-6.7,0c-1.7,0.1-2.7-0.7-3.2-2.2
			C66.3,88.7,66.2,88.3,66,87.8z M52.2,31.9c0-0.2,0.1-0.4,0.1-0.6c-1.7-1-3.5-1.9-5.2-2.9c-0.5-0.3-1.1-0.4-1.4-0.8
			c-1.6-2-3.8-3-6-4.2c-6.4-3.3-12.9-6.5-19.4-9.8c-0.1-0.1-0.3-0.1-0.4-0.1c-2.8,0-5.5-0.1-8.3,0c-0.3,0-1,0.6-1,1
			c0,4.3,0.1,8.6,0.1,12.9c0,1.2,0.4,1.5,1.6,1.6c4,0.4,8,0.6,11.8,1.4c5.3,1.2,10.5,2.9,16.1,2.6c3.5-0.2,7-0.4,10.5-0.7
			C51.2,32.4,51.7,32.1,52.2,31.9z M55.4,124.6c3.4,1.8,6.9,2.7,10.6,2.8c2.1,0.1,4.2-0.1,6.3,0.2c3.5,0.6,6.8,1.6,10.3,2.3
			c0.8,0.2,1.9,0,2.5-0.4c4.4-3.2,8.7-6.4,13-9.6c0.7-0.5,1.5-0.7,2.2-1.1c0.4-0.2,0.7-0.6,0.9-1.1c0.3-0.6,0.4-1.3,0.5-1.9
			c0.6-2.4,1.2-4.8,1.8-7.2c-6.9,0.6-12.9,3.4-19.1,5.6c-4.7,1.6-9.3,3.6-14,5.3C65.6,121.1,60.6,122.8,55.4,124.6z M113.6,78.8
			c-0.9-0.4-1.4-0.7-1.9-1c-2.2-0.9-4.4-1.7-6.5-2.8c-2.9-1.5-5.6-2.2-9-1.3c-5.8,1.5-11.5,3.1-16.8,6c-1.5,0.8-3,1.7-4.6,2.6
			c0.6,0.3,0.8,0.5,1.1,0.6c5.2,1.1,10.3,2.4,15.5,3.3c6.1,1.1,12.3,2.1,18,5.6c0.4-1,0.6-2,1.1-2.9c0.8-1.4,0.4-2.2-1-2.9
			c-0.7-0.3-1.4-0.9-1.9-1.5c-1.3-1.4-0.8-3.4,1-4C110.1,80,111.6,79.5,113.6,78.8z M232.9,10.8c-0.8-0.3-1.3-0.6-1.9-0.6
			c-4-0.3-8.1-0.5-12.1-0.7c-0.9-0.1-1.5,0.2-1.8,1.2c-0.4,1.1-1.1,2.2-1.8,3.2c-2.9,4.3-5.9,8.5-8.7,12.8
			c-3.5,5.5-6.7,11.1-10,16.7c-0.3,0.5-0.5,1.1-0.7,1.7c0.1,0.1,0.2,0.2,0.3,0.3c0.4-0.3,0.8-0.5,1.1-0.8c1.4-1.4,2.8-2.8,4.2-4.2
			c3.5-3.3,7.1-6.5,10.6-9.7c1.2-1.1,2.4-2.3,3.6-3.5c2.9-3,5.7-6,8.6-8.9C227.1,15.6,229.9,13.3,232.9,10.8z M210.5,112.3
			c0.1,0.2,0.2,0.4,0.3,0.6c1.8-0.8,4.1-1.3,5.4-2.6c2.8-2.9,4.1-6.6,3.6-10.7c-0.2-1.5,0.1-2.6,0.9-3.7c1.6-2.2,1.4-3.1-1.1-4.4
			c-0.3-0.1-0.6-0.3-0.9-0.3c-2.5-0.6-5-1.2-7.4-1.9c-2.7-0.8-5.5-1.2-7.6-3.6c-1.8-2-4.1-3.2-7-3.2c-2.2,0-4.4-0.5-6.5-0.8
			c-1.8-0.3-3.6-1-5.3-1.1c-3-0.1-5.9,0.3-8.9,0.5c-1.3,0.1-2.7,0.4-3.9,0.5c0.2,1.3,0.3,2.4,0.5,3.7c1.6,0.1,3.3,0.1,5,0.3
			c7.3,0.8,14.5,1.8,21.7,2.6c4.2,0.4,8.2,1.5,12,3.4c2,1,3.2,2.7,3.2,5.1c0,1.7,0.5,3.4,0.8,5.1c0.1,0.5,0.3,1.1,0.1,1.5
			c-1.6,2.4-3.2,4.7-3.8,7.6C211.8,111.4,211,111.8,210.5,112.3z M39,39.4c-1.3-1.6-21.5-6.1-28.3-6.3c-0.1,0.8-0.2,1.6-0.1,2.4
			c0,4,0.1,8.1,0.1,12.1c0,0.3,0.4,0.7,0.7,0.8c0.7,0.2,1.5,0.3,2.3,0.3c4.1-0.1,8.1-0.7,11.8-2.4c3.5-1.6,6.9-3.5,10.4-5.2
			C37,40.5,38,40,39,39.4z M199.6,92.2c0.3,1.3,2,1.7,0.9,2.9c-0.6,0.7-1.5,1.1-2.3,1.7c-0.2,0.1-0.4,0.1-0.6,0.1
			c-5.7,0.8-11.4,1.6-17.1,2.5c-1.8,0.3-3.5,0.6-5.3,1c-0.2,0-0.5,0.2-0.6,0.4c-0.5,1,0.6,2.7,1.7,2.8c0.5,0.1,1,0.1,1.5,0.2
			c7.3,0.9,14.6,1.7,21.9,2.6c3.3,0.4,6.6-0.1,9.8-0.9c0.3-0.1,0.6-0.5,0.6-0.8c0.1-3-0.1-6.1-1.5-8.8
			C206.6,92.4,202.8,93.2,199.6,92.2z M207,9.3c-0.6-0.3-1-0.5-1.4-0.6c-1-0.1-2-0.2-3.1-0.2c-5-0.1-10-0.3-15-0.4
			c-3.9-0.1-5.2-0.6-4.4,4.5c0.2,1.1,0.3,2.7-0.3,3.3c-0.6,0.7-0.5,1.2-0.6,1.8c-0.1,1,0.1,2.1,0,3.1c-0.1,0.9-0.4,1.8-0.5,2.7
			c-0.2,2.5-0.4,5-0.5,7.5c0,0.4,0.1,0.8,0.1,1.2c0.4-0.1,1-0.1,1.2-0.3c2.6-2.7,5.2-5.5,7.7-8.3c1.2-1.3,2-3,3.3-4.2
			C197.3,15.5,201.9,12.4,207,9.3z M247,49.5c-0.8,0.4-1.2,0.5-1.6,0.8c-2.3,1.3-4.7,2.7-7,4c-5.2,2.7-9.8,6.2-13.9,10.5
			c-1.1,1.1-0.9,1.8,0.5,2.3c0.4,0.1,0.9,0.2,1.3,0.2c3.1,0.2,6.2,0.5,9.3,0.7c3.6,0.2,7.2,0.4,10.9,0.6c0.8,0,1.2-0.3,1.2-1.2
			c-0.1-4.4-0.2-8.8-0.3-13.2C247.4,52.8,247.2,51.3,247,49.5z M50.3,111.7c0.4,3,0.9,5.9,1.3,8.8c0.2,1,0.8,1.2,1.7,0.9
			c1.6-0.6,3.3-1.1,4.9-1.7c4.7-1.6,9.5-3,14.2-4.8c7.8-3,15.4-6.7,23.5-8.8c2.7-0.7,5.4-1.9,8.4-1c0.2,0.1,0.6-0.4,0.9-0.6
			c-0.3-0.2-0.5-0.7-0.8-0.7c-1.3,0.2-2.6,0.4-3.9,0.6c-5.2,0.8-10.4,1.6-15.5,2.4c-5.2,0.8-10.3,1.7-15.5,2.4
			c-4.9,0.7-9.8,1.2-14.7,1.8C53.3,111.4,51.9,111.5,50.3,111.7z M70.1,78.9c1,1.4,1.9,2,3.2,1.4c3.4-1.7,6.7-3.7,10.3-5.1
			c5.1-2,10.4-3.7,15.6-5.3c1.2-0.4,2.8-0.2,4.1,0.2c4,1.5,7.8,3.3,11.7,4.9c1.5,0.6,3,1.3,4.4,2.1c1.7,1,1.7,2.1,0,3
			c-1.1,0.6-2.3,0.8-3.4,1.3c-0.4,0.2-0.6,0.6-0.9,0.8c0.4,0.2,0.7,0.6,1.1,0.7c1.8,0.4,3.6,0.6,5.4,1c1.5,0.3,3.1,0.6,4.6,0.8
			c0-0.1,0.1-0.3,0.1-0.4c-0.3-0.1-0.6-0.2-0.8-0.4c-0.5-0.4-1.4-0.8-1.5-1.3c-0.1-0.5,0.4-1.3,0.8-1.8c0.4-0.5,1-0.9,1.5-1.3
			c0.8-0.7,0.7-1.4-0.3-1.9c-2.7-1.3-5.3-2.6-7.9-3.9c-2.3-1.2-4.4-2.7-5.9-5c-0.9-1.4-2.1-2.6-3.4-3.8c-0.6-0.6-1.6-0.9-2.4-0.9
			c-2.3-0.2-4.1,1.1-5.9,2.2c-1.3,0.8-2.8,1.4-4.2,2c-2.6,1.1-5.7,1.6-7.9,3.3c-2.3,1.8-4.9,2.6-7.5,3.5
			C77.3,76.5,73.8,77.7,70.1,78.9z M176.6,107.2c-0.7,2.1,0.1,3.1,1.7,3.8c4.4,2,8.8,4.1,13.2,6c1.3,0.5,2.8,0.9,4.1,0.8
			c1.8-0.2,3.5-0.9,5.3-1.5c2.1-0.7,4-1.8,4.9-4c0.7-1.7,0.4-2.2-1.5-2.2c-2.8-0.1-5.6,0.1-8.3-0.2c-5-0.6-10-1.6-15.1-2.4
			C179.5,107.3,178,107.3,176.6,107.2z M44.1,107.4c0-1.4-0.2-2.7,0-3.9c0.9-4,3.6-6.7,6.8-9c1.3-1,2.8-1.7,4.2-2.6
			c3.8-2.5,7.6-5,11.4-7.4c1.8-1.2,2-1.5,0.7-3.7c-0.6,0.3-1.1,0.7-1.7,1c-2.8,1.1-5.6,2.2-8.4,3.4c-4,1.7-7.5,4-9.8,7.7
			c-1.1,1.7-2.1,3.7-3.7,4.8c-2.2,1.5-3.2,3-2.5,5.6c0.4,1.4,0.5,3,0.8,4.5C42.8,107.5,43.5,107.4,44.1,107.4z M170.9,222.2
			c0.1-0.1,0.2-0.2,0.3-0.4c-3.2-0.7-2.9-2.8-2.5-4.9c0,0,0-0.1,0-0.2c0.1-5.9,0.3-11.9,0.1-17.8c-0.1-2.7-0.7-5.5-1.1-8.2
			c-0.2,0-0.3,0-0.5,0c-2.6,10.7-3.1,21.6-3,32.8C166.5,223.2,168.7,222.7,170.9,222.2z M55.1,21.5c-0.5-0.5-0.8-0.9-1.2-1.2
			c-3.5-2.5-6.9-5.1-10.5-7.4c-1.2-0.8-2.7-1.3-4.1-1.3c-1.9-0.1-3.7,0.5-5.6,0.7c-0.7,0.1-1.3,0.2-2,0.2c-0.1,0.1-0.1,0.3-0.2,0.4
			c0.2,0.1,0.4,0.2,0.6,0.3c3.7,1.8,7.3,3.6,11,5.3C46.8,20.1,50.5,22.2,55.1,21.5z M126.8,84.7c0.3,0.1,0.5,0.2,0.8,0.2
			c4.3,0.1,8.6,0.2,12.9,0.2c1.4,0,2.8-0.2,4.1-0.2c3.3,0.1,6.6,0.4,10,0.4c3.5,0,6.9-0.3,10.4-0.4c1.6,0,1.1-1.3,1.2-2
			c0.2-1-0.7-1-1.3-0.9c-2.6,0.2-5.3,0.5-7.9,0.6c-2.5,0.1-5-0.1-7.5,0.1c-1.9,0.1-3.7,0.8-5.6,0.8c-4,0-7.9-0.2-11.9-0.7
			C129.9,82.4,128.4,83.4,126.8,84.7z M49.4,11.8c0,0.2,0.1,0.4,0.1,0.5c2.6,1.9,5.2,3.8,7.8,5.6c2,1.4,4.1,2.7,6.2,3.9
			c0.4,0.3,1.2,0.1,1.8,0.1c0-0.7,0.2-1.5,0-2.1c-0.5-1.2-1.2-2.4-1.8-3.5c-0.8-1.5-1.5-3.2-3.5-3.6c-0.3-0.1-0.8-0.4-0.9-0.8
			c-0.4-1.1-1.3-1.2-2.3-1.1c-1.3,0.2-2.6,0.4-3.9,0.5C51.8,11.5,50.6,11.7,49.4,11.8z M161.7,7.9c0.5,1.2,0.9,2,1.2,2.9
			c1.8,4.4,3.7,8.9,5.5,13.3c0.1,0.3,0.6,0.6,0.9,0.8c0.1-0.4,0.4-0.7,0.4-1.1c0-1.4,0-2.7,0-4.1c0.1-3.6,0.2-7.2,0.2-10.8
			c0-0.4-0.6-1-1-1C166.6,7.8,164.4,7.9,161.7,7.9z M10.8,73.8c0.1,0,0.2,0,0.3,0.1c1.2-3.2,2.3-6.5,3.6-9.7
			c0.6-1.5,1.4-2.9,1.8-4.5c0.2-1,0.2-2.4-0.3-3c-1.3-1.4-3.2-2.1-5.3-2.1C10.8,61.1,10.8,67.4,10.8,73.8z M176.6,114.5
			c0.1,0.6,0.1,1,0.1,1.3c0.3,2.6,0.6,5.1,1,7.7c0.2,1.1,1,0.9,1.8,0.6c1-0.4,1.9-0.8,2.8-1.1c2.1-0.9,4.3-1.7,6.8-2.7
			C184.8,118.2,180.8,116.4,176.6,114.5z M67.5,87.3c1.7,0.1,3.1,0.2,4.5,0.3c1.9,0.2,3.8,0.4,5.8,0.7c2.6,0.4,5.1,1,7.6,1.4
			c3.4,0.5,6.9,0.9,10.3,1.4c1.4,0.2,2.8,0.3,4.2,0.4c0-0.1,0.1-0.3,0.1-0.4c-0.5-0.2-1-0.6-1.6-0.7c-2.5-0.5-4.9-0.8-7.4-1.3
			c-3.2-0.5-6.3-1-9.5-1.7c-2.6-0.5-5.4-1-7.8-2.1C71.1,84.3,70.1,84.9,67.5,87.3z M47.6,122.3c-0.1-1.1-0.1-2-0.2-2.9
			c-0.1-0.9-0.2-1.8-0.3-2.7c-0.4-3.6-1-4.4-4.1-4.8c0.5,3.6,1,7.2,1.5,10.8C45.7,122.5,46.6,122.4,47.6,122.3z M90.9,131.1
			c0.1,0.1,0.2,0.3,0.2,0.4c1.1,0.1,2.3,0.1,3.4,0.2c0.9,0.1,1.7,0.4,2.6,0.3c0.6-0.1,1.3-0.6,1.5-1.1c0.4-1.1,0.5-2.4,0.7-3.6
			c0.2-1,0.4-2,0.6-3c-0.1-0.1-0.2-0.1-0.3-0.2C96.8,126.5,93.8,128.8,90.9,131.1z M140.3,227.1c0,0.1,0,0.2,0,0.4
			c0.2,0.1,0.4,0.2,0.5,0.1c2.7-0.5,5.4-0.9,8.1-1.5c0.4-0.1,0.7-0.7,1.1-1.1c-0.6,0-1.1-0.2-1.7-0.1c-1.5,0.4-3,0.9-4.5,1.3
			C142.7,226.6,141.5,226.8,140.3,227.1z M73.4,131.1c0-0.2,0-0.4,0-0.6c-1.5-0.2-3-0.3-4.5-0.5c0,0.2,0,0.5-0.1,0.7
			C70.4,130.8,71.9,131,73.4,131.1z"/>
		<path class="st1" d="M115.6,87.2c1.6,0.2,3.2,0.6,4.8,0.7c3.5,0.3,7,0.7,10.5,0.9c7.3,0.3,14.5,0.4,21.8,0.5
			c3.8,0,7.7-0.3,11.5-0.5c1,0,1.7,0.4,1.9,1.4c0.5,2.6,1.2,5.3,1.4,7.9c0.4,4.9,0.2,9.8,0.8,14.7c0.6,4.9,1.8,9.7,3,14.5
			c0.2,1,1.5,1.8,2.5,2.5c0.7,0.5,1.4,0.9,1.5,1.9c0.2,2.3,0.4,4.6,0.6,6.9c0.6,5.5,1.4,11,1.9,16.6c0.3,3.6,0.4,7.3,0.6,11
			c0.2,3.3,0.4,6.5,0.7,9.8c0.4,3.7,0.9,7.5,1.4,11.2c0.3,2.6,0.8,5.1,1.1,7.7c0.1,1-0.1,2.1,0.1,3.2c0.7,4,1.6,7.9,2.4,11.9
			c0.2,1.2,0,2.4,0.1,3.7c0,0.9-0.1,1.8,0.2,2.6c0.3,1.1-0.1,1.7-1,1.8c-2.5,0.3-5,0.6-7.5,0.7c-1.2,0.1-2.2-0.5-2.1-2
			c0.1-3.4,0.3-6.7,0.2-10.1c-0.1-3.6-0.1-7.2-0.6-10.7c-0.7-4.7-1.8-9.4-2.8-14.1c-0.4-2.1-1-4.3-1.3-6.4c-0.3-1.8-1.5-1.6-2.8-1.7
			c-1.2,0-2.1,0.5-2.2,1.8c-0.3,5.1-0.5,10.2-1,15.3c-0.3,3.8-1.2,7.6-1.5,11.4c-0.4,4.5-0.4,9-0.6,13.6c-0.1,2.4-0.4,4.9-0.6,7.3
			c-0.1,0.9-0.5,1.3-1.6,1.5c-3.1,0.4-3.2,0.5-3.9-2.5c-1.3-5.6-2.1-11.2-1.6-17c0.3-3.3,0.3-6.7,0.5-10c0.3-5.6,0.8-11.2,1.1-16.8
			c0.2-3.7,0.2-7.5,0-11.2c0-0.8-1.2-1.7-2.1-2.1c-1.2-0.4-2.5,0.2-2.9,1.3c-0.9,2.5-1.9,5.2-2.1,7.8c-0.3,3.3,0.1,6.7,0.3,10
			c0.2,2,0.9,4,0.9,6c0.1,3.5,0,7-0.4,10.4c-0.7,5.6-1.8,11.2-2.6,16.8c-0.1,0.9-0.2,1.8-0.1,2.8c0.1,1.1-0.4,1.9-1.4,2.3
			c-1.6,0.6-3.2,1-4.8,1.5c-2.2,0.6-4.3,1.2-6.5,1.8c-6.7,2-13.6,2.9-20.6,2.9c-5.3,0-10.6,0.9-15.9,0.7c-4.8-0.1-9.7-0.3-14.4-1.8
			c-1.9-0.6-3.9-1.1-5.8-1.8c-1-0.3-1.4-1-1-2.2c1.2-3.7,2.3-7.4,3.5-11c1.9-5.6,3.8-11.2,5.7-16.8c1.9-5.8,3.5-11.6,5.5-17.4
			c2.2-6.4,4.7-12.8,6.9-19.2c1.6-4.6,2.8-9.3,4.3-13.9c0.8-2.5,1.7-4.9,2.5-7.4c0.3-1.2,0.4-2.4,0.6-3.6c0.7-3.3,1.5-6.6,2.1-9.9
			c1.2-6.2,2.3-12.4,3.6-18.6c0.5-2.4,1.5-4.7,2.3-7.1c1-2.9,2-5.8,2.9-8.7C115.6,89.2,115.5,88.3,115.6,87.2z"/>
		<path class="st1" d="M51.4,40.1c1.2-1.2,2.4-2.5,3.8-3.7c0.4-0.3,1.2-0.3,1.7-0.2c2.6,0.4,3.8-0.8,3.5-3.4
			c-0.1-0.4,0.2-1.1,0.5-1.4c3.7-3,7.7-5.5,12.3-6.9c4-1.2,8.2-1.7,12.4-2.1c4.6-0.4,9.1-0.5,13.7-0.5c3.8,0,7.6,0.1,11.3,0.6
			c3.1,0.4,6.2,1.4,9.2,2.3c3.5,1,6.9,2.2,10.4,3.2c0.7,0.2,1.5,0.1,2.3,0.2c2.3,0.2,4.6,0.6,7,0.7c1.4,0.1,2.9,0.2,4.1-0.3
			c2.2-0.9,4.4-1.1,6.7-0.5c0.8,0.2,1.7,0.6,2.5,0.6c2.9,0.2,4.3,2.5,6.2,4.2c0.8,0.7,1.5,1.4,2.1,2.2c1.8,2,4.1,3.1,6.8,2.9
			c1.6-0.1,2.8,0.5,3.8,1.9c0.5,0.7,1.3,1.3,2,1.9c0.3,0.3,0.8,0.5,1.1,0.9c2.2,2.7,4.9,4.8,8.3,5.9c1.4,0.4,2.7,1.4,4.1,2.1
			c0.2,0.1,0.5,0.2,0.5,0.3c0.4,2.3,2.7,2.5,4.1,3.6c1.4,1.2,3.3,1.9,5,2.6c0.9,0.4,2,0.4,3,0.4c1.4-0.1,2.3,0.4,3.2,1.4
			c0.7,0.8,1.6,1.4,2.5,2c2.7,1.9,5.4,4,8.7,5.1c1.3,0.4,2.2,1.2,1.9,2.9c-0.1,0.4,0.4,1.1,0.7,1.3c0.7,0.3,1.5,0.6,2.2,0.5
			c3.9-0.5,6.6,1.5,9.3,3.9c4.9,4.4,7.5,10.2,9.7,16.1c1.1,2.9,2.1,5.8,3.3,8.6c0.4,1.1,0.1,1.6-0.9,1.9c-3.5,1.3-7,2.6-10.5,4
			c-2.3,0.9-4.5,1.8-7,2.5c0.3-0.6,0.7-1.2,0.8-1.8c0.6-2.6,1.1-5.3,1.7-7.9c0.3-1.1,0.7-2.2,1.3-3.2c0.8-1.4,0.8-2.6,0-3.9
			c-0.1-0.2-0.3-0.3-0.4-0.5c-1.5-3.7-5-3.3-7.9-3.5c-4-0.1-7.1-2.2-10.2-4.2c-0.4-0.3-0.8-0.7-1-1.2c-0.7-1.7-2-2.2-3.7-2.1
			c-4.1,0.1-8-0.6-11.7-2.5c-1.1-0.6-2.7-0.5-4.1-0.4c-5.6,0.2-11.2,0.5-16.9,0.9c-2,0.1-3.9,0.7-5.9,0.9c-3.6,0.3-7.2,0.4-10.8,0.6
			c-4.7,0.3-9.4,0.4-14.1,0.8c-2.8,0.2-5.2,0.1-7.2-2.4c-1-1.2-2.7-1.7-4.2-2.4c-1.3-0.6-2.6-1.1-3.9-1.7c-1.4-0.6-2.8-1.1-4-1.9
			c-1.5-1-2.8-2.2-4.1-3.4c-1.7-1.4-3.3-2.9-4.8-4.3c0-0.3,0-0.4,0-0.5c0.3-0.7,0.5-1.4,0.8-2.2c-0.9-0.2-1.7-0.4-2.6-0.5
			c-0.5-0.1-1.1,0.2-1.5,0.1c-3.1-0.9-5.7,0.7-8.5,1.7c-2.8,0.9-5.1,2.6-7.6,4.1c-1.7,1-3.7,1.5-5.5,2.3c-1.7,0.8-3.2,1.8-4.9,2.6
			c-1.2,0.6-2.5,1.2-3.8,1.7c-2.6,0.9-5.2,1.8-7.8,2.7c-1.2,0.4-2.4,0.8-3.6,1.3c-1,0.4-1.8,1-2.8,1.6c-0.9,0.5-1.8,1.2-2.8,1.6
			c-5,1.7-9.9,3.7-13.9,7.3c-1.6,1.4-2.6,3.3-4,4.9c-1.7,1.9-3.5,3.8-5.3,5.7c-1.2,1.3-0.9,2.8-0.5,4.2c1.2,4.6,2.3,9.2,2.7,13.9
			c0.2,2.4,1,4.8,1.4,7.2c0.1,0.5,0.1,1.1,0.1,1.7c-0.2,1.9,0.5,2.8,2.4,2.9c1.2,0.1,2.5,0,3.7,0c0.6,0,1.2,0,1.6,0.3
			c3.7,2.1,7.9,2.2,11.9,2.9c3,0.5,5.8,1.4,8.8,2c0.9,0.2,1.9,0.3,2.7,0.1c3.2-0.7,6,0.3,9.1,1.4c-0.4,0.3-0.6,0.5-0.8,0.6
			c-6.2,1.7-12.5,3.1-19,2.9c-2.6-0.1-5.3,0.8-7.9,1.2c-2.6,0.4-5.3,0.8-7.9,1.1c-0.5,0.1-0.9,0.1-1.4,0.2c-1.5,0.4-2.8,0.4-4.3-0.1
			c-1.1-0.4-2.4-0.2-3.6-0.2c-1.2,0-2.2,0-3.1-1.2c-1.9-2.4-4.2-4.4-5.8-6.9c-1.3-2.2-2.2-4.8-2.6-7.3c-1-6.1-1.5-12.4-2.3-18.5
			c-0.5-4-0.3-7.9,0.7-11.7c1.8-6.5,3.6-13,6-19.3c3.4-9.2,7.9-17.9,13.7-25.8c1.6-2.2,3.3-4.4,5.1-6.5c0.5-0.5,1.3-0.8,2.1-1.1
			c0.4-0.2,0.9-0.3,1.4-0.5C52,41.4,51.8,40.9,51.4,40.1z"/>
		<path class="st1" d="M232.7,202.3c-1.5-2.2-3-4.4-4.4-6.7c-3.8-6.2-7.5-12.3-11.2-18.5c-2.5-4.2-5-8.4-7.4-12.6
			c-2.6-4.6-5.3-9.1-7.8-13.7c-1.6-3.1-2.9-6.4-4.5-9.4c-0.8-1.6-2.1-3-3.3-4.4c-0.4-0.5-1.2-0.9-1.7-0.9c-1,0.1-2.1,0.5-2.9,1.1
			c-0.2,0.2,0.4,1.5,0.6,2.3c0.6,1.8,1.4,3.6,1.8,5.5c0.9,4.3,1.6,8.7,2.5,13.1c0.7,3.2,1.7,6.4,2.6,9.6c0.6,2.1,1.1,4.3,2,6.3
			c2.3,5.4,4.9,10.6,7.1,16c1.5,3.8,2.7,7.7,3.9,11.6c0.3,0.9,0.2,2,0.1,3.1c-0.1,0.5-0.5,1.1-0.9,1.5c-4.2,3.4-9,5.7-14.1,7.3
			c-1.7,0.5-3.3,1.3-5.1,2.1c-0.6-4.4-1.2-8.6-1.8-12.9c-0.1-0.5-0.1-1,0-1.5c0.2-2.1-0.3-3.9-1.2-5.8c-0.9-1.7-0.9-3.9-1.3-5.9
			c-0.7-4.2-1.6-8.3-2.1-12.5c-0.5-3.8-0.9-7.6-0.9-11.4c0.1-6.2-0.7-12.3-1.8-18.4c-0.5-2.9-0.7-5.8-0.9-8.7
			c-0.2-2.8-0.2-5.5-0.4-8.3c-0.2-1.9,0.7-2.7,2.2-3.3c3.4-1.4,6.9-2.5,10.1-4.2c2.8-1.5,4.9-0.1,7.2,0.8c1.7,0.7,3.3,1,5,0
			c1.3-0.7,1.4-1.8,0.2-2.7c-0.6-0.4-1.2-0.8-1.9-1.3c0-0.2,0-0.3,0-0.5c0.6-0.1,1.2-0.4,1.8-0.3c1.8,0.2,3.5,0.4,4.8-1.5
			c0.3-0.5,1.1-0.7,1.7-0.9c8.8-3.3,17.5-6.6,26.3-9.8c2.7-1,5.5-1.7,8.3-2.6c1.3-0.4,1.7,0.4,1.8,1.4c0.1,1,0.1,1.9,1,2.6
			c0.2,0.2,0.3,0.6,0.3,1c0.1,4.5,0.2,9.1,0.3,13.6c0.2,5.9,0.4,11.8,0.6,17.6c0.2,4.3,0.4,8.6,0.7,12.9c0.4,4.9,0.9,9.7,1.3,14.6
			c0,0.3-0.5,0.8-0.8,0.9c-1.5,0.4-1.9,1.2-1.3,2.5c0,0.1,0.1,0.2,0.2,0.3c3.2,2.9,1.1,6.6,1.9,9.9c-0.2,0.1-0.3,0.2-0.5,0.3
			c-0.8-0.7-1.6-1.2-2.3-2c-3.3-3.4-6.8-6.7-9.8-10.3c-3-3.6-5.5-7.5-8.1-11.3c-1.4-2.1-2.7-4.2-4.2-6.2c-0.8-1-1.9-1.6-2.9-2.4
			c-1.2-0.9-2.4-1.8-3.5-2.7c-1.5-1.3-3.1-1.2-4.1,0.5c-0.3,0.5-0.2,1.5,0.2,1.8c2.3,2.6,4.9,4.9,7,7.6c5,6.3,9.9,12.7,14.8,19
			c1.6,2,1.4,6.4-0.1,8.5c-0.8,1.2-1.2,2.6-1.7,4c-0.6,1.9-1.2,3.8-1.5,5.8c-0.4,2.3-0.5,4.6-0.8,7c-0.1,0.5-0.2,1-0.3,1.4
			C233.1,202.1,232.9,202.2,232.7,202.3z"/>
		<path class="st1" d="M196.7,151.4c0.2,0.3,0.5,0.6,0.7,0.9c5.5,9.4,10.9,18.9,16.4,28.3c4.1,7,8.2,14,12.5,21
			c1.5,2.4,3.4,4.6,5.1,6.9c0.9,1.2,2.5,1.3,4.1,0.6c1.3-0.7,1.7-1.6,1.6-3.2c-0.2-2.8-0.1-5.7,0.2-8.4c0.3-2.6,0.8-5.2,1.6-7.8
			c0.4-1.3,1.2-2.8,2.3-3.7c1.4-1.3,1.6-2.7,1.6-4.3c0-0.2,0-0.4,0-0.8c0.4,0.2,0.7,0.3,1,0.5c1.9,1.6,3.9,3.2,5.7,4.9
			c0.4,0.4,0.8,1.1,0.8,1.7c-0.2,3.5-0.6,6.9-0.9,10.4c-0.2,2-0.3,4-0.3,6c0,6.5-0.1,13,0,19.6c0,1.7-0.8,2.4-2.2,2.6
			c-2,0.3-4,0.3-5.9,0.6c-3.1,0.3-6.3,0.9-9.4,1.1c-3,0.1-6-0.2-9-0.4c-3-0.1-6-0.4-9-0.4c-4.8-0.1-9.7-0.2-14.5,0
			c-5.3,0.3-10.7,0.9-16,1.6c-5.4,0.7-10.8,1.5-16.2,2.4c-6.4,1.1-12.8,2.3-19.3,3.5c-2,0.3-3.9,0.5-5.9,0.8
			c-6.1,0.7-12.3,1.4-18.4,1.9c-8.1,0.7-16.2,1.6-24.4,1.2c-4.8-0.2-9.6-0.9-14.4-1.1c-7.3-0.2-14.6-0.1-22-0.1c-3,0-6,0-9-0.3
			c-0.7-0.1-1.5-1.2-2-2c-0.4-0.7-0.6-1.8-1.6-1.4c-0.6,0.2-1.2,1-1.4,1.7c-0.3,1.1-0.8,1.4-2,1.3c-6.9-0.8-13.9-1.6-20.9-2.3
			c-3.3-0.3-6.6-0.5-9.9-0.7c-3.4-0.1-3.3-0.1-3.4-3.4c0-7-0.2-14-0.2-20.9c0-7.9,0.1-15.9,0.1-23.8c0-0.9,0.2-1.4,1-1.8
			c2.6-1.6,5.2-3.4,8.1-5.3c-0.3,1-0.5,1.8-0.7,2.6c-1.5,4.7-3,9.5-2.7,14.6c0.1,1.7,0.1,3.5,0.5,5.2c0.2,0.9,1.1,1.8,1.8,2.6
			c3.6,4.1,8.9,2.2,10.6-2.2c2.2-5.6,4.8-11.1,7.4-16.5c0.9-1.9,2.2-3.7,3.1-5.6c0.3-0.7,0-1.7,0-2.6c0-0.6-0.1-1.2,0.2-1.7
			c1.4-2.1,2.7-4.2,4.3-6.1c1.7-2.1,3.6-3.9,5.5-5.8c0.3-0.3,0.8-0.6,1.5-0.6c-0.2,0.4-0.4,0.9-0.5,1.3c-2,4.5-4.2,9-5.9,13.6
			c-1.7,4.5-2.6,9.2-2.9,14c-0.2,3.7-1.2,7.1-3.2,10.3c-1,1.6-1.8,3.3-2.5,5.1c-0.2,0.5-0.1,1.2-0.1,1.8c-0.5,4.2-1.1,8.5-1.7,12.7
			c-0.4,3.2,0.4,4.3,3.7,4.5c0.9,0.1,1.8,0.2,2.7,0c1.9-0.3,3.1-1.5,3.9-3.4c2.7-6,5.7-11.9,8.4-17.9c2.4-5.4,4.6-10.9,6.9-16.4
			c2.7-6.2,5.5-12.3,8.3-18.5c0.2-0.4,0.5-0.9,1.1-1.2c0,0.5,0.2,1,0.1,1.5c-0.7,5.8-2.4,11.2-4.3,16.7c-1.6,4.7-2.9,9.5-3.4,14.5
			c-0.1,1.3-0.6,2.5-0.9,3.7c-0.7,3.4-1.4,6.9-2.2,10.3c-0.6,2.4-0.5,4.7,0,7.1c0.4,1.5-0.7,2-1.8,2.5c0.1,0.2,0.3,0.5,0.4,0.5
			c1.8,0,1.9,1.8,2.9,2.6c1.1,0.9,2.5,1.6,3.8,1.7c2.9,0.2,5.6,1.2,8.4,2.1c3.1,1,6.4,1.6,9.7,2.1c4.2,0.6,8.4,1.3,12.6,1.5
			c3.1,0.2,6.3-0.2,9.5-0.5c4.8-0.4,9.7-0.8,14.5-1.3c8.3-0.9,16.5-1.8,24.8-2.7c1.8-0.2,3.6-0.9,5.4-1.1c0.7-0.1,1.8,0.2,2.3,0.7
			c3.3,3.1,8,2.2,10.1-1.9c0.3-0.5,0.9-1,1.5-1.1c1.9-0.5,3.8-0.7,5.7-1.1c4.1-1,8.1-2.1,12.2-3c1.6-0.4,3.4-0.2,5-0.6
			c0.8-0.2,1.5-0.9,2.1-1.4c0.8-0.6,1.5-1.5,2.4-1.9c4.3-1.8,8.8-3.2,12.9-5.2c3.4-1.6,6.5-3.9,9.6-6c1.5-1,1.2-2.2,0.8-3.9
			c-1-4.7-2.8-9.2-4.8-13.5c-2-4.4-4.4-8.7-6.1-13.2c-2.3-5.8-4.1-11.9-6-17.8c-0.8-2.4-1.2-5-1.9-7.5
			C196.4,151.5,196.5,151.5,196.7,151.4z"/>
		<path class="st1" d="M209.5,54.8c1-1.8,1.9-3.7,3-5.4c1.6-2.5,3.3-5.1,5.3-7.3c2.2-2.5,4.8-4.6,7.3-6.7c1.4-1.2,1.6-1.9,0.7-3.5
			c-0.2-0.4-0.2-1.1,0-1.5c1.6-2.6,3.3-5,4.9-7.6c1.4-2.3,2.6-4.6,3.9-6.9c0.8-1.3,1.7-2.5,2.6-3.8c0.3-0.4,0.7-0.8,1.2-0.8
			c1-0.2,2.1-0.2,3.3-0.3c-0.6,1.3-1.2,2.8-1.8,4.2c-0.8,2.2-0.3,2.9,2,3c2.3,0.1,2.3,0.1,2.6,2.4c0.8,6.6,1.6,13.2,2.4,19.9
			c0.1,0.9-0.1,1.4-1,1.8c-3.5,1.3-7,2.8-10.6,4.1c-2.8,1-5.7,1.5-8.5,2.4c-4.9,1.7-9.7,3.6-14.5,5.4c-0.8,0.3-1.6,0.7-2.5,1
			C209.7,55,209.6,54.9,209.5,54.8z"/>
		<path class="st1" d="M66,87.8c0.2,0.5,0.3,0.9,0.4,1.2c0.6,1.5,1.5,2.3,3.2,2.2c2.2-0.1,4.5-0.3,6.7,0c3.1,0.4,6.2,1.2,9.3,1.6
			c5.5,0.7,11.1,1.3,16.6,2c1.5,0.2,2.9,0.6,4.3,1c0.3,0.1,0.6,1,0.5,1.5c-0.1,0.9-0.2,2-1.5,2.2c-3.9,0.8-7.7,1.7-11.6,2.4
			c-3.6,0.7-7.3,1.1-10.9,1.6c-4,0.6-7.9,1.4-11.9,2c-5.3,0.8-10.5,2.4-15.9,2.1c-1.5-0.1-3,0.2-4.4,0.2c-0.9,0-1.8,0-1.6-1.5
			c0.2-1.2-0.7-2.5-0.6-3.6c0.4-2.9,2.6-4.8,4.7-6.4c3.6-2.8,7.5-5.3,11.4-7.8C65.2,88.2,65.6,88.1,66,87.8z"/>
		<path class="st1" d="M52.2,31.9c-0.5,0.2-0.9,0.4-1.4,0.5c-3.5,0.2-7,0.4-10.5,0.7c-5.6,0.3-10.8-1.4-16.1-2.6
			c-3.9-0.8-7.9-1.1-11.8-1.4c-1.2-0.1-1.6-0.5-1.6-1.6c0-4.3-0.1-8.6-0.1-12.9c0-0.3,0.6-0.9,1-1c2.8-0.1,5.5,0,8.3,0
			c0.1,0,0.3,0.1,0.4,0.1c6.5,3.2,12.9,6.5,19.4,9.8c2.2,1.1,4.4,2.2,6,4.2c0.3,0.4,0.9,0.6,1.4,0.8c1.7,1,3.5,1.9,5.2,2.9
			C52.2,31.5,52.2,31.7,52.2,31.9z"/>
		<path class="st1" d="M55.4,124.6c5.2-1.8,10.2-3.4,15.1-5.2c4.7-1.7,9.3-3.7,14-5.3c6.2-2.2,12.2-5,19.1-5.6
			c-0.6,2.4-1.2,4.8-1.8,7.2c-0.2,0.6-0.3,1.3-0.5,1.9c-0.2,0.4-0.5,0.8-0.9,1.1c-0.7,0.4-1.6,0.7-2.2,1.1c-4.4,3.2-8.7,6.5-13,9.6
			c-0.6,0.5-1.7,0.6-2.5,0.4c-3.4-0.7-6.8-1.7-10.3-2.3c-2-0.4-4.2-0.2-6.3-0.2C62.4,127.3,58.9,126.4,55.4,124.6z"/>
		<path class="st1" d="M113.6,78.8c-2,0.7-3.5,1.2-5.1,1.7c-1.9,0.6-2.4,2.6-1,4c0.6,0.6,1.2,1.1,1.9,1.5c1.4,0.7,1.8,1.5,1,2.9
			c-0.5,0.8-0.7,1.8-1.1,2.9c-5.7-3.4-11.9-4.5-18-5.6C86.2,85.3,81,84,75.9,82.9c-0.3-0.1-0.5-0.3-1.1-0.6c1.7-1,3.1-1.8,4.6-2.6
			c5.3-2.8,11-4.5,16.8-6c3.4-0.9,6.1-0.1,9,1.3c2.1,1.1,4.3,1.9,6.5,2.8C112.2,78.1,112.7,78.4,113.6,78.8z"/>
		<path class="st1" d="M232.9,10.8c-3,2.6-5.8,4.8-8.4,7.3c-3,2.9-5.8,5.9-8.6,8.9c-1.2,1.2-2.4,2.4-3.6,3.5
			c-3.5,3.3-7.1,6.5-10.6,9.7c-1.5,1.4-2.8,2.8-4.2,4.2c-0.3,0.3-0.8,0.6-1.1,0.8c-0.1-0.1-0.2-0.2-0.3-0.3c0.2-0.6,0.4-1.2,0.7-1.7
			c3.3-5.6,6.5-11.2,10-16.7c2.7-4.4,5.8-8.5,8.7-12.8c0.7-1,1.4-2.1,1.8-3.2c0.4-1,0.9-1.2,1.8-1.2c4,0.3,8.1,0.5,12.1,0.7
			C231.6,10.2,232.1,10.5,232.9,10.8z"/>
		<path class="st1" d="M210.5,112.3c0.5-0.5,1.3-0.8,1.4-1.4c0.6-2.9,2.2-5.2,3.8-7.6c0.2-0.3,0-1-0.1-1.5c-0.3-1.7-0.8-3.4-0.8-5.1
			c0-2.5-1.2-4.1-3.2-5.1c-3.8-1.9-7.8-2.9-12-3.4c-7.3-0.7-14.5-1.7-21.7-2.6c-1.7-0.2-3.4-0.2-5-0.3c-0.2-1.3-0.3-2.4-0.5-3.7
			c1.3-0.2,2.6-0.4,3.9-0.5c3-0.2,5.9-0.5,8.9-0.5c1.8,0,3.5,0.8,5.3,1.1c2.2,0.4,4.3,0.8,6.5,0.8c2.9,0,5.3,1.2,7,3.2
			c2.1,2.4,4.9,2.8,7.6,3.6c2.4,0.7,4.9,1.3,7.4,1.9c0.3,0.1,0.6,0.2,0.9,0.3c2.5,1.3,2.7,2.1,1.1,4.4c-0.8,1.1-1.1,2.2-0.9,3.7
			c0.4,4.1-0.8,7.8-3.6,10.7c-1.3,1.3-3.6,1.8-5.4,2.6C210.8,112.7,210.6,112.5,210.5,112.3z"/>
		<path class="st1" d="M39,39.4c-1,0.6-2,1.1-3.1,1.7c-3.4,1.8-6.8,3.6-10.4,5.2c-3.7,1.7-7.8,2.3-11.8,2.4c-0.8,0-1.5-0.1-2.3-0.3
			c-0.3-0.1-0.7-0.5-0.7-0.8c-0.1-4-0.1-8.1-0.1-12.1c0-0.8,0.1-1.6,0.1-2.4C17.5,33.3,37.7,37.8,39,39.4z"/>
		<path class="st1" d="M199.6,92.2c3.3,1,7,0.2,8.9,3.6c1.5,2.7,1.6,5.7,1.5,8.8c0,0.3-0.4,0.7-0.6,0.8c-3.2,0.8-6.4,1.3-9.8,0.9
			c-7.3-0.9-14.6-1.7-21.9-2.6c-0.5-0.1-1-0.1-1.5-0.2c-1.1-0.1-2.1-1.8-1.7-2.8c0.1-0.2,0.4-0.4,0.6-0.4c1.8-0.3,3.5-0.7,5.3-1
			c5.7-0.8,11.4-1.6,17.1-2.5c0.2,0,0.4,0,0.6-0.1c0.8-0.5,1.7-1,2.3-1.7C201.6,94,199.9,93.6,199.6,92.2z"/>
		<path class="st1" d="M207,9.3c-5.1,3-9.6,6.1-13.5,10.1c-1.2,1.3-2.1,2.9-3.3,4.2c-2.5,2.8-5.1,5.5-7.7,8.3
			c-0.2,0.3-0.8,0.2-1.2,0.3c0-0.4-0.1-0.8-0.1-1.2c0.2-2.5,0.3-5,0.5-7.5c0.1-0.9,0.4-1.8,0.5-2.7c0.1-1,0-2.1,0-3.1
			c0-0.6-0.1-1.1,0.6-1.8c0.6-0.6,0.5-2.2,0.3-3.3c-0.7-5.1,0.5-4.6,4.4-4.5c5,0.1,10,0.3,15,0.4c1,0,2,0.1,3.1,0.2
			C206,8.8,206.3,9.1,207,9.3z"/>
		<path class="st1" d="M247,49.5c0.2,1.8,0.4,3.2,0.4,4.7c0.1,4.4,0.2,8.8,0.3,13.2c0,0.9-0.3,1.2-1.2,1.2
			c-3.6-0.2-7.2-0.4-10.9-0.6c-3.1-0.2-6.2-0.5-9.3-0.7c-0.5,0-0.9,0-1.3-0.2c-1.5-0.5-1.6-1.2-0.5-2.3c4.1-4.2,8.7-7.7,13.9-10.5
			c2.4-1.3,4.7-2.7,7-4C245.8,50.1,246.2,49.9,247,49.5z"/>
		<path class="st1" d="M50.3,111.7c1.6-0.1,3-0.3,4.4-0.4c4.9-0.6,9.8-1.1,14.7-1.8c5.2-0.7,10.4-1.6,15.5-2.4
			c5.2-0.8,10.4-1.6,15.5-2.4c1.3-0.2,2.6-0.5,3.9-0.6c0.2,0,0.5,0.4,0.8,0.7c-0.3,0.2-0.7,0.6-0.9,0.6c-2.9-1-5.7,0.3-8.4,1
			c-8.1,2.2-15.7,5.8-23.5,8.8c-4.6,1.8-9.4,3.2-14.2,4.8c-1.6,0.6-3.3,1.1-4.9,1.7c-0.9,0.3-1.5,0.1-1.7-0.9
			C51.2,117.5,50.8,114.6,50.3,111.7z"/>
		<path class="st1" d="M70.1,78.9c3.7-1.3,7.2-2.4,10.7-3.7c2.6-0.9,5.2-1.7,7.5-3.5c2.1-1.7,5.2-2.2,7.9-3.3c1.4-0.6,2.9-1.2,4.2-2
			c1.8-1.1,3.6-2.4,5.9-2.2c0.8,0.1,1.8,0.4,2.4,0.9c1.2,1.1,2.5,2.4,3.4,3.8c1.5,2.3,3.6,3.8,5.9,5c2.6,1.3,5.3,2.6,7.9,3.9
			c1,0.5,1.1,1.1,0.3,1.9c-0.5,0.4-1.1,0.8-1.5,1.3c-0.4,0.5-0.9,1.3-0.8,1.8c0.1,0.5,0.9,0.9,1.5,1.3c0.2,0.2,0.6,0.3,0.8,0.4
			c0,0.1-0.1,0.3-0.1,0.4c-1.5-0.3-3.1-0.6-4.6-0.8c-1.8-0.3-3.6-0.6-5.4-1c-0.4-0.1-0.7-0.4-1.1-0.7c0.3-0.3,0.6-0.7,0.9-0.8
			c1.1-0.5,2.4-0.7,3.4-1.3c1.7-0.9,1.8-2,0-3c-1.4-0.8-2.9-1.5-4.4-2.1c-3.9-1.7-7.8-3.4-11.7-4.9c-1.2-0.5-2.8-0.6-4.1-0.2
			c-5.3,1.6-10.5,3.3-15.6,5.3c-3.5,1.4-6.8,3.4-10.3,5.1C72,81,71.1,80.4,70.1,78.9z"/>
		<path class="st1" d="M176.6,107.2c1.4,0.1,2.9,0.1,4.4,0.3c5,0.8,10,1.7,15.1,2.4c2.7,0.3,5.5,0.2,8.3,0.2c1.9,0,2.1,0.5,1.5,2.2
			c-0.9,2.3-2.8,3.3-4.9,4c-1.7,0.6-3.5,1.3-5.3,1.5c-1.3,0.1-2.8-0.3-4.1-0.8c-4.5-1.9-8.8-4-13.2-6
			C176.7,110.3,175.9,109.3,176.6,107.2z"/>
		<path class="st1" d="M44.1,107.4c-0.6,0.1-1.3,0.2-2.2,0.3c-0.3-1.5-0.4-3.1-0.8-4.5c-0.7-2.6,0.2-4.1,2.5-5.6
			c1.6-1.1,2.6-3,3.7-4.8c2.4-3.8,5.9-6,9.8-7.7c2.8-1.2,5.6-2.2,8.4-3.4c0.6-0.2,1.1-0.6,1.7-1c1.3,2.2,1.1,2.6-0.7,3.7
			c-3.8,2.4-7.6,5-11.4,7.4c-1.4,0.9-2.8,1.6-4.2,2.6c-3.2,2.3-5.9,5-6.8,9C43.9,104.7,44.1,106,44.1,107.4z"/>
		<path class="st1" d="M170.9,222.2c-2.2,0.5-4.4,1-6.5,1.5c-0.1-11.2,0.4-22.1,3-32.8c0.2,0,0.3,0,0.5,0c0.4,2.7,1,5.5,1.1,8.2
			c0.1,5.9-0.1,11.9-0.1,17.8c0,0.1,0,0.1,0,0.2c-0.5,2.2-0.7,4.3,2.5,4.9C171.1,222,171,222.1,170.9,222.2z"/>
		<path class="st1" d="M55.1,21.5c-4.6,0.7-8.3-1.4-12-3c-3.7-1.7-7.4-3.5-11-5.3c-0.2-0.1-0.4-0.2-0.6-0.3c0.1-0.1,0.1-0.3,0.2-0.4
			c0.7-0.1,1.3-0.1,2-0.2c1.9-0.3,3.7-0.8,5.6-0.7c1.4,0,3,0.6,4.1,1.3c3.6,2.3,7,4.9,10.5,7.4C54.3,20.6,54.6,21,55.1,21.5z"/>
		<path class="st1" d="M126.8,84.7c1.6-1.2,3.1-2.2,5.4-1.9c3.9,0.5,7.9,0.7,11.9,0.7c1.8,0,3.7-0.7,5.6-0.8c2.5-0.2,5,0,7.5-0.1
			c2.6-0.1,5.3-0.4,7.9-0.6c0.7,0,1.6-0.1,1.3,0.9c-0.2,0.7,0.3,2-1.2,2c-3.5,0.1-6.9,0.4-10.4,0.4c-3.3,0-6.6-0.3-10-0.4
			c-1.4,0-2.8,0.2-4.1,0.2c-4.3,0-8.6-0.1-12.9-0.2C127.3,84.9,127,84.7,126.8,84.7z"/>
		<path class="st1" d="M49.4,11.8c1.2-0.2,2.4-0.3,3.6-0.5c1.3-0.2,2.6-0.4,3.9-0.5c1-0.1,1.8,0,2.3,1.1c0.1,0.3,0.5,0.7,0.9,0.8
			c2,0.5,2.7,2.1,3.5,3.6c0.6,1.2,1.3,2.3,1.8,3.5c0.2,0.6,0,1.4,0,2.1c-0.6,0-1.3,0.2-1.8-0.1c-2.1-1.2-4.2-2.6-6.2-3.9
			c-2.6-1.8-5.2-3.7-7.8-5.6C49.5,12.2,49.5,12,49.4,11.8z"/>
		<path class="st1" d="M161.7,7.9c2.7,0,4.9,0,7.2,0c0.3,0,1,0.7,1,1c0,3.6-0.1,7.2-0.2,10.8c0,1.4,0.1,2.7,0,4.1
			c0,0.4-0.2,0.7-0.4,1.1c-0.3-0.3-0.7-0.5-0.9-0.8c-1.9-4.4-3.7-8.9-5.5-13.3C162.5,9.9,162.2,9,161.7,7.9z"/>
		<path class="st1" d="M10.8,73.8c0-6.4,0-12.7,0-19.2c2.1,0,4,0.7,5.3,2.1c0.6,0.6,0.6,2.1,0.3,3c-0.4,1.5-1.2,3-1.8,4.5
			c-1.2,3.2-2.4,6.5-3.6,9.7C11,73.8,10.9,73.8,10.8,73.8z"/>
		<path class="st1" d="M176.6,114.5c4.2,1.9,8.2,3.8,12.6,5.8c-2.5,1-4.7,1.8-6.8,2.7c-0.9,0.4-1.9,0.8-2.8,1.1
			c-0.8,0.3-1.7,0.4-1.8-0.6c-0.4-2.5-0.7-5.1-1-7.7C176.7,115.4,176.7,115.1,176.6,114.5z"/>
		<path class="st1" d="M67.5,87.3c2.6-2.4,3.6-3,6.2-1.9c2.5,1.1,5.2,1.5,7.8,2.1c3.1,0.7,6.3,1.1,9.5,1.7c2.5,0.4,4.9,0.8,7.4,1.3
			c0.6,0.1,1.1,0.5,1.6,0.7c0,0.1-0.1,0.3-0.1,0.4c-1.4-0.1-2.8-0.2-4.2-0.4c-3.4-0.4-6.9-0.8-10.3-1.4c-2.6-0.4-5.1-1-7.6-1.4
			C75.9,88,74,87.8,72,87.6C70.6,87.5,69.2,87.4,67.5,87.3z"/>
		<path class="st1" d="M47.6,122.3c-0.9,0.1-1.8,0.2-3,0.3c-0.5-3.6-1-7.2-1.5-10.8c3.1,0.5,3.7,1.3,4.1,4.8
			c0.1,0.9,0.2,1.8,0.3,2.7C47.5,120.3,47.5,121.2,47.6,122.3z"/>
		<path class="st1" d="M90.9,131.1c2.9-2.3,5.9-4.7,8.8-7c0.1,0.1,0.2,0.1,0.3,0.2c-0.2,1-0.4,2-0.6,3c-0.2,1.2-0.3,2.4-0.7,3.6
			c-0.2,0.5-0.9,1.1-1.5,1.1c-0.8,0.1-1.7-0.2-2.6-0.3c-1.1-0.1-2.3-0.1-3.4-0.2C91.1,131.4,91,131.3,90.9,131.1z"/>
		<path class="st1" d="M140.3,227.1c1.2-0.3,2.4-0.6,3.6-0.9c1.5-0.4,3-0.9,4.5-1.3c0.5-0.1,1.1,0.1,1.7,0.1c-0.4,0.4-0.7,1-1.1,1.1
			c-2.7,0.6-5.4,1-8.1,1.5c-0.2,0-0.3-0.1-0.5-0.1C140.3,227.4,140.3,227.2,140.3,227.1z"/>
		<path class="st1" d="M73.4,131.1c-1.5-0.1-3-0.3-4.5-0.4c0-0.2,0-0.5,0.1-0.7c1.5,0.2,3,0.3,4.5,0.5
			C73.4,130.7,73.4,130.9,73.4,131.1z"/>
	</g>
</g>
<g>
	<g>
		<g id="XMLID_00000178205985999470530750000013355053481172505757_">
			<g>
				<path class="st1" d="M1689.3,121.3l0.8,16.5l-0.6,16.4l-0.9,17.2c0,0.1,0,0.2,0,0.2v3.5c0,0.4-0.1,1.3-0.5,3.5l-1.4,7.5
					c-6.5,27.3-17.2,40.6-32.4,40.6l-32.4-0.6l-12.3-1.7c-6.9-1-13-5.1-18.8-12.7c-0.7-0.9-1.5-1.9-2.2-2.9
					c-1.1-1.6-3.1-2.2-4.9-1.6c-1.8,0.6-3.1,2.3-3.1,4.2v10.9h-69.8v-14c0-2-1.3-3.7-3.2-4.2c-1.9-0.6-3.9,0.2-5,1.9
					c-4.1,6.4-9.2,11.6-15,15.3c-5.9,3.8-13.2,5.7-21.8,5.7c-6.7,0-12.5-1.9-17.8-5.8c-0.8-0.6-1.7-0.9-2.6-0.9
					c-1,0-1.9,0.3-2.7,0.9c-0.4,0.3-0.7,0.7-1,1.1h-39.7l-2.2-11.9c-0.3-1.6-1.4-2.8-2.9-3.3c-1.5-0.5-3.2-0.2-4.3,0.8l-8.5,7.3
					l-9.3,5.5c-6.8,3-12.2,4.5-16,4.5l-10.4-0.6l-11.4-2c-4.9-0.9-10-6.2-14.6-15.4c-1.8-3.7-3.2-8.4-4.3-13.8
					c-1.1-5.3-1.7-11.1-1.7-17.2c0-11.7,6.2-21.6,19.1-30.3l11.9-5.7l26.7-11.4c16-6.4,23.8-13.6,23.8-21.9c0-7-1.8-12.4-5.4-16
					c-3.6-3.6-8.5-5.4-14.8-5.4c-6.1,0-11.3,2.8-15,8c-0.1,0.1-0.2,0.2-0.2,0.3c-2.3,3.9-3.7,8.4-4.2,13.6h-37.8
					c-0.2-0.5-0.5-0.9-0.9-1.3c-0.8-0.8-2-1.3-3.2-1.3c0,0,0,0,0,0c-6.8,0.1-12.4,5.4-16.6,15.9c-0.1,0.2-0.1,0.4-0.2,0.5
					c-0.9,3.6-2.1,18-2.2,101h-36.7V66.5h33.2v18.4c0,1.9,1.3,3.7,3.2,4.2c1.9,0.6,3.9-0.2,5-1.8c5.1-7.8,9.9-13.3,14.3-16.3
					c0.1-0.1,0.2-0.1,0.2-0.2c3.7-2.8,8.5-5.1,14.5-6.7v3.5c0,1.7,0.9,3.2,2.4,4c1.5,0.8,3.3,0.6,4.6-0.4
					c8.9-6.8,19.4-10.2,31.1-10.2c12.5,0,22.1,0.6,28.4,1.7c5.9,1.1,12.4,3.3,19.5,6.4c0.1,0,0.2,0.1,0.2,0.1
					c6.5,2.5,11.1,6.1,14,11.2c0.8,1.4,2.3,2.2,3.9,2.2c1.6,0,3.1-0.9,3.8-2.4c1-1.9,1.9-3.4,2.8-4.6c0.1-0.1,0.1-0.2,0.2-0.3
					c5.8-8.9,13.1-13.2,22.3-13.2c9.6,0,16.9,1.5,21.7,4.3c0.1,0.1,0.2,0.1,0.3,0.2c2.6,1.3,7,4.5,13.7,12.8c1.2,1.4,3.1,2,4.9,1.4
					c1.8-0.6,2.9-2.3,2.9-4.2V11.6h31c0.2,0,0.3,0,0.5,0h41.2V41h-31.9c-2.4,0-4.4,2-4.4,4.4v16.7c0,2.4,2,4.4,4.4,4.4h31.9v10.8
					c0,1.9,1.2,3.6,3.1,4.2c1.8,0.6,3.8-0.1,4.9-1.6c1.8-2.5,3.8-4.8,5.8-6.6c8.8-7.8,17.9-11.7,26.8-11.7l19.9,0.3l11.2,1.4
					c9.5,1.2,17.2,5.9,23.3,14.3c5.2,7,9.1,16.7,11.5,28.8L1689.3,121.3z M1652.3,155.9v-28c0-12.4-0.7-16.8-1.3-18.8
					c-1.6-10-6.1-21.8-18-21.8c-6.4,0-14.8,3.3-18.3,18.9c0,0.1,0,0.2,0,0.3l-1.8,11.1c0,0.2-0.1,0.5-0.1,0.7v22.3l0.3,12.9
					l0.6,18.3c0,8.6,1.6,15.5,4.7,20.6c4.4,7.3,10.2,8.8,14.3,8.8c0.2,0,0.4,0,0.6,0l4.1-0.6c8.9-1.3,11.5-13.7,12.4-17.8
					c0-0.1,0-0.3,0.1-0.4l1.5-13.2c0-0.1,0-0.1,0-0.2l0.9-12.8C1652.3,156.1,1652.3,156,1652.3,155.9z M1508.8,160.3v-26.9
					c0-11.1-0.7-18.6-2.2-23.1c-3.1-14.3-11.3-17.3-17.7-17.3c-5.8,0-13.5,3-17.7,17.2c0,0.1,0,0.1,0,0.2
					c-0.8,3.4-1.9,12.5-1.9,52.4c0,6.9,0.8,14.2,2.4,21.7c2,8.8,7.7,13.7,16,13.7c5.4,0,12.8-2.5,17.8-14.7c0.1-0.2,0.2-0.5,0.2-0.7
					l2-9.1c0-0.2,0.1-0.4,0.1-0.7l0.9-12.6C1508.8,160.5,1508.8,160.4,1508.8,160.3z M1397.6,164.4v-13.4c0-0.1,0-0.3,0-0.4
					l-0.3-3.2c-0.1-1.3-0.8-2.4-1.8-3.2c-1.1-0.7-2.4-1-3.6-0.7c-9.8,2.5-18.1,5.9-24.5,10.3c-9,6.3-13.6,13.6-13.6,21.7
					c0,7.1,1.8,13.2,5.2,18.1c0.1,0.1,0.1,0.2,0.2,0.3c3.8,4.6,9.5,6.9,17.1,6.9c7,0,12.9-4.5,17.6-13.5c0.1-0.2,0.2-0.4,0.2-0.5
					C1396.4,180.3,1397.6,172.8,1397.6,164.4z"/>
				<path class="st1" d="M1228.5,222.5h-35.9V111.8c0-17.2-7.3-20.8-13.5-20.8c-6.4,0-11.8,2.5-15.9,7.4c-0.1,0.1-0.1,0.2-0.2,0.3
					c-1.9,2.7-6,8.3-6.1,123.8h-33.8v-97.8c0-8.5-0.3-14.5-0.9-18.2c-2-13.4-10.2-15.4-14.9-15.4c-6.8,0-12.4,4.1-16.8,12.3
					c-0.1,0.2-0.2,0.3-0.2,0.5c-1.6,4.4-3.4,21.9-3.5,118.6h-34.1v-7.2c0-2-1.3-3.7-3.2-4.2c-1.9-0.5-3.9,0.2-5,1.9
					c-6,9.4-13.2,13.9-22.1,13.9l-32.5-0.6l-12.3-1.7c-6.9-1-13-5.1-18.8-12.7c-2.4-3-4.5-6.1-6.2-9.3c-0.8-1.5-2.4-2.4-4.1-2.3
					c-1.7,0.1-3.2,1.2-3.8,2.7c-6.6,16-15.5,23.8-27.1,23.8l-32.5-0.6l-12.3-1.7c-6.9-1-13-5.1-18.8-12.7c-6.1-7.8-10.1-16-12-24.6
					l-1.4-9.7l-0.9-10.6l-0.9-13l-0.3-17.3c0-9.2,0.7-18.1,2.1-26.4c0.2-1.2-0.1-2.5-0.9-3.5c-0.8-1-2-1.6-3.2-1.6l-0.3,0
					c-0.1,0-0.1,0-0.2,0c-6.8,0-12.4,5.4-16.7,15.9c-0.1,0.2-0.1,0.4-0.2,0.5c-0.9,3.5-2.2,18-2.2,101h-70.6v-101
					c0-6.9-0.3-11.9-0.9-15.3c-2-13.4-10.4-15.4-15.2-15.4c-5.3,0-12.6,2.2-17.2,12.6c0,0.1-0.1,0.2-0.1,0.3
					c-1.6,4.4-3.4,21.9-3.5,118.9h-36.7v-3.2c0-1.7-1-3.2-2.5-4c-1.5-0.7-3.3-0.6-4.6,0.5c-9.8,7.5-21.5,11.3-34.8,11.3
					c-7.6,0-14.1-0.6-19.4-1.9c-0.1,0-0.2,0-0.3-0.1c-6.1-1.1-11.2-2.8-15.3-5.1c-2.2-1.2-4.3-2.6-6.4-4.3c-0.8-0.6-1.8-0.9-2.7-0.9
					c-0.7,0-1.3,0.1-2,0.5c-1.5,0.7-2.5,2.3-2.5,4v3.2h-34.4v-14.9c0-1.9-1.2-3.6-3-4.2c-1.8-0.6-3.8,0-4.9,1.6
					c-4,5.4-9.2,10.5-15.6,15c-5.9,3.8-14.1,5.7-24.4,5.7c-6.7,0-12.1-2.1-16.7-6.4c-1.3-1.2-3.2-1.5-4.8-0.8
					c-1.6,0.7-2.6,2.2-2.7,4h-35.9V111.8c0-17.2-7.3-20.8-13.5-20.8c-6.4,0-11.8,2.5-15.9,7.4c-0.1,0.1-0.1,0.2-0.2,0.3
					c-2,2.7-6,8.3-6.1,123.8h-33.8v-97.8c0-8.5-0.3-14.5-0.9-18.2C367.7,93,359.5,91,354.8,91c-6.8,0-12.4,4.1-16.8,12.3
					c-0.1,0.2-0.2,0.3-0.2,0.5c-1.6,4.4-3.4,21.9-3.5,118.6h-34.1V66.5H332v14.9c0,2,1.3,3.7,3.2,4.2c1.9,0.5,3.9-0.2,5-1.8
					c3.2-5,8.1-10,14.4-14.9c5.7-4.1,11.9-6.1,19-6.1c6.4,0,11.8,1.6,16.7,4.8l6.1,6.7c2.3,2.5,4.6,5.7,6.7,9.4
					c0.8,1.3,2.2,2.2,3.7,2.2c1.5,0.1,3-0.7,3.8-2c3.8-5.7,8.6-10.8,14.3-15.1c2.7-1.7,6-3,9.7-4c4.1-1.1,8.7-1.6,13.8-1.6
					c6.3,0,11.5,2,15.8,6.1c1.3,1.2,3.2,1.6,4.8,0.9c1.5-0.6,2.4-1.9,2.6-3.5h36.8v97.1l0.3,13c0,18.6,9.5,21.4,15.2,21.4
					c5.7,0,13.5-2.2,18.1-12.8c1.2-2.5,3.8-9,3.9-118.6h36.7v5.1c0,1.8,1,3.3,2.6,4c1.6,0.7,3.5,0.4,4.8-0.8
					c0.2-0.2,0.5-0.4,0.7-0.7c0.3-0.2,0.5-0.5,0.8-0.8c10.2-8.2,21.1-12.1,33.4-12.1c12.8,0,23.4,1.8,31.5,5.4
					c3.6,1.6,6.8,3.5,9.5,5.6c1.3,1,3.1,1.2,4.6,0.4s2.4-2.3,2.4-3.9V11.6h36.7v67.4c0,1.9,1.3,3.7,3.1,4.2c1.9,0.6,3.9-0.1,5-1.8
					c4.4-6.6,9.4-11.4,14.9-14.4c4.8-2.7,12.5-4.1,22.9-4.1c6.8,0,12.4,2.5,17.2,7.7c1.2,1.3,3.2,1.8,4.9,1.1
					c1.7-0.7,2.8-2.3,2.8-4.1v-1.1h33.2v18.4c0,1.9,1.3,3.7,3.2,4.2c1.9,0.6,3.9-0.2,5-1.8c5.1-7.8,9.9-13.3,14.3-16.3
					c0.1-0.1,0.2-0.1,0.2-0.2c3.7-2.8,8.5-5.1,14.5-6.7v5.5c0,1.7,1,3.3,2.6,4c1.6,0.7,3.4,0.4,4.7-0.7c8.8-7.6,17.7-11.4,26.4-11.4
					l19.9,0.3l11.2,1.4c9.5,1.2,17.2,5.9,23.3,14.3c2,2.7,3.9,6,5.5,9.6c0.7,1.6,2.2,2.6,4,2.6c0,0,0,0,0.1,0c1.7,0,3.2-1,4-2.5
					c2.7-5.6,6.1-10.3,10.1-14c8.9-7.8,17.9-11.7,26.8-11.7l19.9,0.3l11.1,1.4c9.5,1.2,17.2,5.9,23.3,14.3c0.2,0.3,0.4,0.6,0.6,0.9
					l0.4,0.5c1.1,1.6,3.1,2.3,5,1.7c1.8-0.6,3.1-2.3,3.1-4.2v-10h31.8v14.9c0,2,1.3,3.7,3.2,4.2c1.9,0.6,3.9-0.2,5-1.8
					c3.2-5,8.1-10,14.4-14.9c5.7-4.1,11.9-6.1,19-6.1c6.4,0,11.8,1.6,16.7,4.8l6.1,6.7c2.3,2.5,4.6,5.7,6.7,9.4
					c0.8,1.3,2.2,2.2,3.7,2.2c1.5,0,3-0.7,3.8-2c3.8-5.7,8.6-10.8,14.3-15.1c2.7-1.7,6-3,9.7-4c4.1-1.1,8.7-1.6,13.8-1.6
					c9.4,0,16.5,4.5,21.5,13.7C1224.6,81.1,1228.4,106,1228.5,222.5z M1020.4,155.9v-28c0-12.4-0.7-16.8-1.3-18.8
					c-3-18-11.4-21.8-18-21.8c-6.4,0-14.8,3.3-18.3,18.9c0,0.1,0,0.2,0,0.3l-1.8,11.1c0,0.2,0,0.5,0,0.7v22.2c0,0,0,0.1,0,0.1
					l0.3,12.9l0.6,18.3c0,8.6,1.6,15.5,4.7,20.6c4.4,7.3,10.2,8.8,14.3,8.8c0.2,0,0.4,0,0.6,0l4.1-0.6c8.9-1.3,11.5-13.7,12.4-17.8
					c0-0.1,0-0.3,0.1-0.4l1.5-13.2c0-0.1,0-0.1,0-0.2l0.9-12.8C1020.4,156.1,1020.4,156,1020.4,155.9z M915.6,155.9v-28
					c0-12.4-0.7-16.8-1.3-18.8c-3-18-11.4-21.8-18.1-21.8c-6.4,0-14.8,3.3-18.3,18.9c0,0.1,0,0.2-0.1,0.3l-1.8,11.1
					c0,0.2,0,0.5,0,0.7v22.2c0,0,0,0.1,0,0.1l0.3,12.9l0.6,18.3c0,8.6,1.6,15.5,4.7,20.6c4.4,7.3,10.2,8.8,14.3,8.8
					c0.2,0,0.4,0,0.6,0l4.1-0.6c8.9-1.3,11.5-13.7,12.4-17.8c0-0.1,0-0.3,0.1-0.4l1.5-13.2c0-0.1,0-0.1,0-0.2l0.9-12.8
					C915.6,156.1,915.6,156,915.6,155.9z M672.9,138.7v-28.1c0-2.4-2-4.4-4.4-4.4h-20.1c-0.3-4.9-1.1-9.1-2.5-12.6
					c0-0.1,0-0.1-0.1-0.2c-3.9-9-10.4-10.8-15.2-10.8c-5.9,0-10.9,1.6-14.8,4.8c-4.3,3.5-6.6,8.5-6.6,14.2c0,5.6,2.9,10.9,8.5,15.9
					c0.3,0.2,0.6,0.5,1,0.6l41.5,20.3l5.7,4c0.8,0.5,1.6,0.8,2.5,0.8c0.7,0,1.4-0.2,2-0.5C672,141.9,672.9,140.3,672.9,138.7z
					 M641.6,199.6c3.5-2.2,7.5-6.7,7.5-15.7c0-7.4-6.8-14.5-21.4-22.3c-25-12.9-32.6-17.5-34.6-19.1c-1.1-0.9-2.1-1.8-3.2-2.9
					c-1.3-1.2-3.2-1.6-4.8-0.9s-2.7,2.3-2.7,4.1v31.4c0,2.4,2,4.4,4.4,4.4h20.5l0.5,4.8c0,0.3,0.1,0.6,0.2,0.9l2.3,7.3
					c0.1,0.2,0.1,0.4,0.2,0.5c4.6,9.8,11.2,11.9,16,11.9C632.1,204.1,637.2,202.6,641.6,199.6z"/>
				<path class="st0" d="M1699,137.5c0,0.1,0,0.2,0,0.4l-0.6,16.7l-0.9,17.2v3.4c0,1.3-0.2,3-0.7,5.2l-1.4,7.6c0,0.1,0,0.1,0,0.2
					c-7.5,31.5-21.3,47.5-41.1,47.5l-32.8-0.6c-0.2,0-0.4,0-0.5,0l-12.6-1.8c-6.8-1-13.2-4.3-18.9-9.7v3.3c0,2.4-2,4.4-4.4,4.4
					h-78.6c-2.4,0-4.4-2-4.4-4.4v-5.8c-2.9,3-6.1,5.6-9.6,7.8c-7.3,4.7-16.3,7.1-26.6,7.1c-6.8,0-13.1-1.6-18.7-4.8
					c-0.3,0.1-0.5,0.1-0.8,0.1h-47.9c-2.1,0-3.9-1.5-4.3-3.6l-1.5-7.9l-3,2.6c-0.2,0.2-0.4,0.3-0.7,0.5l-9.9,5.8
					c-0.2,0.1-0.3,0.2-0.5,0.2c-8.2,3.6-14.7,5.3-19.9,5.3c-0.1,0-0.2,0-0.2,0l-10.8-0.6c-0.2,0-0.3,0-0.5-0.1l-11.7-2
					c-8-1.4-14.8-8-21-20.2c0,0,0-0.1-0.1-0.1c-2.1-4.4-3.8-9.8-5-15.9c-1.2-5.9-1.8-12.3-1.8-19c0-14.7,7.8-27.5,23.3-37.9
					c0.2-0.1,0.4-0.2,0.6-0.3l12.3-5.8c0.1,0,0.1-0.1,0.2-0.1l26.9-11.4c16.6-6.7,18.3-11.8,18.3-13.8c0-4.6-0.9-7.9-2.8-9.7
					c-1.9-1.9-4.7-2.8-8.6-2.8c-3.2,0-5.6,1.3-7.7,4.1c-2.1,3.5-3.1,8-3.1,13.4c0,2.4-2,4.4-4.4,4.4h-46.2c-1.2,0-2.2-0.4-3-1.2
					c-1.8,1.6-3.6,4.5-5.2,8.6c-0.5,2.5-1.3,13.3-1.7,52.4c-0.1,13.3-0.2,29.9-0.2,50.6c0,2.4-2,4.4-4.4,4.4h-45.6
					c-2.4,0-4.4-2-4.4-4.4V62.1c0-2.4,2-4.4,4.4-4.4h42.1c2.4,0,4.4,2,4.4,4.4v9.5c2.9-3.3,5.7-5.9,8.5-7.8
					c5.8-4.5,13.6-7.7,23.4-9.5c1.3-0.2,2.6,0.1,3.6,0.9c1,0.8,1.6,2.1,1.6,3.4v0.9c8.8-4.9,18.6-7.4,29.3-7.4c13,0,23.1,0.6,30,1.8
					c6.6,1.2,13.7,3.6,21.4,7c5.8,2.2,10.6,5.3,14.3,9.3c7.4-11.2,17.4-17,29.5-17c11.3,0,19.9,1.8,26.1,5.5
					c2.7,1.4,5.6,3.5,8.6,6.4V7.2c0-2.4,2-4.4,4.4-4.4h34.9c0.2,0,0.3,0,0.5,0h46.2c2.4,0,4.4,2,4.4,4.4v38.3c0,2.4-2,4.4-4.4,4.4
					h-31.9v7.8h31.9c2.4,0,4.4,2,4.4,4.4v3.8c10.2-8.7,20.9-13.1,31.8-13.1l20.2,0.3c0.2,0,0.3,0,0.5,0l11.4,1.5
					c11.9,1.5,21.8,7.5,29.3,17.8c6,8.1,10.4,19,13,32.4c0,0.1,0,0.1,0,0.2l2.3,15.2c0,0.1,0,0.3,0,0.4L1699,137.5z M1690.2,137.8
					l-0.8-16.5l-2.3-14.9c-2.4-12.1-6.2-21.8-11.5-28.8c-6.2-8.4-13.8-13.1-23.3-14.3l-11.2-1.4l-19.9-0.3
					c-8.9,0-17.9,3.9-26.8,11.7c-2,1.9-4,4.1-5.8,6.6c-1.1,1.6-3.1,2.2-4.9,1.6c-1.8-0.6-3.1-2.3-3.1-4.2V66.5h-31.9
					c-2.4,0-4.4-2-4.4-4.4V45.4c0-2.4,2-4.4,4.4-4.4h31.9V11.5h-41.2c-0.2,0-0.3,0-0.5,0h-31v65.1c0,1.9-1.2,3.5-2.9,4.2
					c-1.8,0.6-3.7,0.1-4.9-1.4c-6.8-8.3-11.2-11.6-13.7-12.8c-0.1-0.1-0.2-0.1-0.3-0.2c-4.7-2.9-12-4.3-21.7-4.3
					c-9.2,0-16.5,4.3-22.3,13.2c-0.1,0.1-0.1,0.2-0.2,0.3c-0.9,1.2-1.8,2.7-2.8,4.6c-0.8,1.4-2.2,2.3-3.8,2.4
					c-1.7,0-3.1-0.8-3.9-2.2c-2.9-5.1-7.4-8.7-14-11.2c-0.1,0-0.2-0.1-0.2-0.1c-7.1-3.2-13.6-5.3-19.5-6.4
					c-6.3-1.1-15.9-1.7-28.4-1.7c-11.7,0-22.1,3.4-31.1,10.2c-1.3,1-3.1,1.2-4.6,0.4c-1.5-0.8-2.4-2.3-2.4-4v-3.5
					c-6,1.6-10.8,3.9-14.5,6.7c-0.1,0.1-0.2,0.1-0.2,0.2c-4.4,3-9.2,8.4-14.3,16.3c-1.1,1.6-3.1,2.4-5,1.8c-1.9-0.6-3.2-2.3-3.2-4.2
					V66.5h-33.2v155.9h36.7c0-83,1.3-97.4,2.2-101c0.1-0.2,0.1-0.4,0.2-0.5c4.2-10.5,9.8-15.9,16.6-15.9c0,0,0,0,0,0
					c1.2,0,2.3,0.5,3.2,1.3c0.4,0.4,0.7,0.8,0.9,1.3h37.8c0.5-5.2,1.9-9.7,4.2-13.6c0.1-0.1,0.1-0.2,0.2-0.3c3.7-5.2,8.9-8,15-8
					c6.2,0,11.2,1.8,14.8,5.4c3.6,3.6,5.4,9,5.4,16c0,8.3-7.8,15.5-23.8,21.9l-26.7,11.4l-11.9,5.7c-12.9,8.7-19.1,18.6-19.1,30.3
					c0,6.1,0.6,11.9,1.7,17.2c1.1,5.5,2.5,10.1,4.3,13.8c4.7,9.2,9.8,14.5,14.6,15.4l11.4,2l10.4,0.6c3.8,0,9.2-1.5,16-4.5l9.3-5.5
					l8.5-7.3c1.2-1,2.8-1.4,4.3-0.8c1.5,0.5,2.6,1.8,2.9,3.3l2.2,11.9h39.7c0.3-0.4,0.6-0.8,1-1.1c0.8-0.6,1.8-0.9,2.7-0.9
					c0.9,0,1.9,0.3,2.6,0.9c5.2,3.9,11,5.8,17.8,5.8c8.6,0,16-1.9,21.8-5.7c5.9-3.7,10.9-8.9,15-15.3c1.1-1.7,3.1-2.4,5-1.9
					c1.9,0.5,3.2,2.3,3.2,4.2v14h69.8v-10.9c0-1.9,1.2-3.6,3.1-4.2c1.8-0.6,3.8,0.1,4.9,1.6c0.7,1,1.4,2,2.2,2.9
					c5.8,7.6,11.9,11.7,18.8,12.7l12.3,1.7l32.4,0.6c15.2,0,25.9-13.3,32.4-40.6l1.4-7.5c0.4-2.2,0.5-3.2,0.5-3.5v-3.5
					c0-0.1,0-0.1,0-0.2l0.9-17.2L1690.2,137.8z"/>
				<path class="st0" d="M1652.3,127.8v28c0,0.1,0,0.2,0,0.3l-0.9,12.8c0,0.1,0,0.1,0,0.2l-1.5,13.2c0,0.1,0,0.3-0.1,0.4
					c-0.9,4.1-3.6,16.4-12.4,17.8l-4.1,0.6c-0.2,0-0.4,0-0.6,0c-4.1,0-9.8-1.5-14.3-8.8c-3.1-5.1-4.7-12.1-4.7-20.6l-0.6-18.3
					l-0.3-12.9v-22.3c0-0.2,0-0.5,0.1-0.7l1.8-11.1c0-0.1,0-0.2,0-0.3c3.5-15.6,11.9-18.9,18.3-18.9c11.9,0,16.4,11.8,18,21.8
					C1651.6,111.1,1652.3,115.4,1652.3,127.8z M1643.4,155.7v-27.9c0-12-0.7-15.6-1-16.5c-0.1-0.2-0.1-0.4-0.1-0.6
					c-2.3-14.7-7.6-14.7-9.4-14.7c-1.9,0-7,0-9.7,11.9l-1.7,10.6v21.9l0.3,12.8l0.6,18.4c0,0.1,0,0.1,0,0.1c0,6.9,1.2,12.4,3.4,16.1
					c2.4,3.9,4.8,4.5,6.5,4.6l3.8-0.5c1-0.1,3.2-2.6,5-10.7l1.4-12.8L1643.4,155.7z"/>
				<path class="st0" d="M1508.8,133.4v26.9c0,0.1,0,0.2,0,0.3l-0.9,12.6c0,0.2-0.1,0.5-0.1,0.7l-2,9.1c-0.1,0.2-0.1,0.5-0.2,0.7
					c-5.1,12.2-12.5,14.7-17.8,14.7c-8.3,0-14-4.8-16-13.7c-1.6-7.5-2.4-14.8-2.4-21.7c0-40,1.1-49.1,1.9-52.4c0-0.1,0-0.1,0-0.2
					c4.2-14.2,11.9-17.2,17.7-17.2c6.4,0,14.6,3,17.7,17.3C1508.1,114.8,1508.8,122.3,1508.8,133.4z M1500,160.1v-26.7
					c0-12.6-1-18.1-1.8-20.5c-0.1-0.2-0.1-0.4-0.2-0.5c-2.2-10.5-7-10.5-9.1-10.5c-1.5,0-6,0-9.2,10.7c-0.7,3.2-1.6,14.6-1.6,50.3
					c0,6.3,0.8,13,2.2,19.8c1.4,5.9,4.3,6.7,7.4,6.7c1.4,0,5.7,0,9.5-8.9l1.9-8.4L1500,160.1z"/>
				<path class="st0" d="M1397.6,150.9v13.4c0,8.5-1.2,15.9-3.5,22.3c-0.1,0.2-0.2,0.4-0.2,0.5c-4.7,8.9-10.6,13.5-17.6,13.5
					c-7.6,0-13.3-2.3-17.1-6.9c-0.1-0.1-0.1-0.2-0.2-0.3c-3.5-4.8-5.2-10.9-5.2-18.1c0-8.1,4.6-15.4,13.6-21.7
					c6.5-4.4,14.7-7.9,24.5-10.3c1.2-0.3,2.6-0.1,3.6,0.7c1.1,0.8,1.7,1.9,1.8,3.2l0.3,3.2C1397.5,150.6,1397.6,150.8,1397.6,150.9z
					 M1388.7,164.4v-10.9c-6.5,2-12,4.6-16.5,7.6c-6.5,4.6-9.8,9.3-9.8,14.5c0,5.3,1.2,9.4,3.5,12.8c2.1,2.4,5.4,3.6,10.2,3.6
					c3.4,0,6.7-2.9,9.7-8.5C1387.8,178,1388.7,171.7,1388.7,164.4z"/>
				<path class="st0" d="M1237.4,226.8c0,2.4-2,4.4-4.4,4.4h-44.7c-2.4,0-4.4-2-4.4-4.4V111.7c0-7.9-1.6-11.9-4.6-11.9
					c-3.7,0-6.5,1.3-9,4c-1.4,3.1-4.4,21.5-4.4,123c0,2.4-2,4.4-4.4,4.4h-42.7c-2.4,0-4.4-2-4.4-4.4V124.6c0-7.9-0.3-13.6-0.8-16.8
					c-1.2-8-4.5-8-6.2-8c-1.2,0-4.8,0-8.8,7.3c-1.1,3.7-2.9,24.6-2.9,119.8c0,2.4-2,4.4-4.4,4.4h-42.9c-2.3,0-4.1-1.7-4.4-3.9
					c-6.2,5.5-13.3,8.3-21.5,8.3l-32.8-0.6c-0.2,0-0.4,0-0.5,0l-12.6-1.8c-9.2-1.3-17.4-6.7-24.5-16c-0.9-1.1-1.7-2.3-2.6-3.4
					c-7.8,14.5-18.5,21.8-31.8,21.8l-32.8-0.6c-0.2,0-0.4,0-0.5,0l-12.6-1.8c-9.2-1.3-17.4-6.7-24.5-16c-7-8.8-11.6-18.4-13.7-28.4
					c0-0.1,0-0.2,0-0.3l-1.5-9.9c0-0.1,0-0.2,0-0.3l-0.9-10.8l-0.9-13.2c0-0.1,0-0.2,0-0.2l-0.3-17.5c0-6.4,0.3-12.7,1-18.7
					c-1,1.6-2,3.6-3,5.9c-0.7,3.4-1.8,21.7-1.8,103c0,2.4-2,4.4-4.4,4.4h-79.5c-2.4,0-4.4-2-4.4-4.4V121.4c0-6.3-0.3-11-0.8-13.8
					c0-0.1,0-0.1,0-0.2c-1.2-7.9-4.7-7.9-6.4-7.9c-2.5,0-6.2,0.7-9,7.2c-1.1,3.3-2.9,23.6-2.9,120.2c0,2.4-2,4.4-4.4,4.4h-45.6
					c-2.2,0-4.1-1.6-4.4-3.8c-9.8,5.6-20.9,8.4-33.2,8.4c-8.2,0-15.4-0.7-21.4-2.1c-7-1.2-13.1-3.3-17.9-6c-0.1-0.1-0.3-0.1-0.4-0.2
					c-0.3,2.1-2.2,3.7-4.4,3.7h-43.2c-2.4,0-4.4-2-4.4-4.4v-7.6c-2.9,2.8-6.1,5.5-9.7,8c-0.1,0-0.1,0.1-0.2,0.1
					c-7.3,4.7-17.2,7.1-29.3,7.1c-6.2,0-11.9-1.4-16.8-4.3c-0.8,0.7-1.8,1.1-2.9,1.1h-44.7c-2.4,0-4.4-2-4.4-4.4V111.8
					c0-7.9-1.6-11.9-4.6-11.9c-3.7,0-6.5,1.3-9,4c-1.4,3.1-4.4,21.5-4.4,123c0,2.4-2,4.4-4.4,4.4h-42.6c-2.4,0-4.4-2-4.4-4.4V124.6
					c0-7.9-0.3-13.6-0.8-16.8c-1.2-8-4.6-8-6.2-8c-1.2,0-4.8,0-8.8,7.3c-1.1,3.7-2.9,24.6-2.9,119.8c0,2.4-2,4.4-4.4,4.4h-42.9
					c-2.4,0-4.4-2-4.4-4.4V62.1c0-2.4,2-4.4,4.4-4.4h40.6c2.4,0,4.4,2,4.4,4.4v7c2.5-2.5,5.3-4.9,8.4-7.3c0,0,0.1-0.1,0.1-0.1
					c7.2-5.2,15.3-7.9,24.2-7.9c8.3,0,15.7,2.2,22.1,6.6c0.3,0.2,0.5,0.4,0.8,0.6l6.4,7c1.5,1.6,2.9,3.4,4.3,5.4
					c3.6-4.5,7.8-8.5,12.6-12.1c0.1-0.1,0.2-0.1,0.3-0.2c3.5-2.2,7.6-3.9,12.3-5.2c4.9-1.3,10.2-1.9,16.1-1.9
					c6.1,0,11.5,1.4,16.3,4.3c0.7-0.5,1.6-0.8,2.5-0.8h45.6c2.4,0,4.4,2,4.4,4.4v101.4l0.3,13.1c0,12.6,4.5,12.6,6.4,12.6
					c3.1,0,7.1-0.9,10-7.6c0,0,0-0.1,0-0.1c1.1-3,3.1-22.5,3.1-119.4c0-2.4,2-4.4,4.4-4.4h45.6c2.4,0,4.4,2,4.4,4.4v0.5
					c10.2-6.7,21.5-10.1,33.5-10.1c14,0,25.8,2.1,35.1,6.2c1.4,0.7,2.8,1.3,4.2,2.1V7.2c0-2.4,2-4.4,4.4-4.4h45.6
					c2.4,0,4.4,2,4.4,4.4v59.6c3.1-3,6.4-5.5,9.8-7.4c6.1-3.5,15.1-5.2,27.2-5.2c6.4,0,12.1,1.7,17.2,4.9c0.8-0.9,2-1.4,3.3-1.4
					h42.1c2.4,0,4.4,2,4.4,4.4v9.5c2.9-3.3,5.7-5.9,8.5-7.8c5.8-4.5,13.7-7.7,23.4-9.5c1.3-0.2,2.6,0.1,3.6,0.9
					c1,0.8,1.6,2.1,1.6,3.4v2.2c8.1-5.3,16.5-8,25-8l20.2,0.3c0.2,0,0.3,0,0.5,0l11.4,1.5C928.6,56,938.5,62,946,72.3
					c0.9,1.2,1.8,2.5,2.6,3.9c2.4-3.6,5-6.7,8-9.5c0,0,0.1-0.1,0.1-0.1c10.5-9.3,21.5-14,32.7-14l20.2,0.3c0.2,0,0.3,0,0.5,0
					l11.4,1.5c8.6,1.1,16.1,4.5,22.4,10.1v-2.6c0-2.4,2-4.4,4.4-4.4h40.6c2.4,0,4.4,2,4.4,4.4v7c2.5-2.5,5.3-4.9,8.4-7.3
					c0,0,0.1,0,0.1-0.1c7.2-5.2,15.3-7.9,24.2-7.9c8.3,0,15.7,2.2,22.1,6.6c0.3,0.2,0.5,0.4,0.8,0.7l6.4,7c1.5,1.6,2.9,3.4,4.3,5.4
					c3.6-4.5,7.8-8.5,12.6-12.1c0.1-0.1,0.2-0.1,0.3-0.2c3.5-2.2,7.6-3.9,12.3-5.2c4.9-1.3,10.3-1.9,16.1-1.9
					c12.8,0,22.6,6.2,29.3,18.4C1233.2,78.5,1237.4,100.9,1237.4,226.8z M1192.6,222.5h35.9c-0.1-116.5-3.9-141.4-6.2-145.7
					c-5-9.2-12.1-13.7-21.5-13.7c-5,0-9.7,0.5-13.8,1.6c-3.7,1-7,2.4-9.7,4c-5.7,4.3-10.5,9.4-14.3,15.1c-0.8,1.3-2.3,2-3.8,2
					c-1.5-0.1-2.9-0.9-3.7-2.2c-2.1-3.8-4.4-6.9-6.7-9.4l-6.1-6.7c-4.8-3.2-10.3-4.8-16.7-4.8c-7.1,0-13.3,2-19,6.1
					c-6.3,4.9-11.2,9.9-14.4,14.9c-1.1,1.7-3.1,2.4-5,1.8c-1.9-0.5-3.2-2.3-3.2-4.2V66.5h-31.8v10c0,1.9-1.3,3.7-3.1,4.2
					c-1.8,0.6-3.9-0.1-5-1.7l-0.4-0.5c-0.2-0.3-0.4-0.6-0.6-0.9c-6.2-8.4-13.8-13.1-23.3-14.3l-11.1-1.4l-19.9-0.3
					c-8.9,0-17.9,3.9-26.8,11.7c-4,3.7-7.4,8.4-10.1,14c-0.7,1.5-2.3,2.5-4,2.5c0,0,0,0-0.1,0c-1.7,0-3.2-1-4-2.6
					c-1.7-3.6-3.5-6.9-5.5-9.6c-6.2-8.4-13.8-13.1-23.3-14.3l-11.2-1.4l-19.9-0.3c-8.8,0-17.7,3.8-26.4,11.4
					c-1.3,1.1-3.2,1.4-4.7,0.7c-1.6-0.7-2.6-2.3-2.6-4v-5.5c-6,1.6-10.8,3.9-14.5,6.7c-0.1,0.1-0.1,0.1-0.2,0.2
					c-4.4,3-9.2,8.4-14.3,16.3c-1.1,1.6-3.1,2.4-5,1.8c-1.9-0.6-3.2-2.3-3.2-4.2V66.5h-33.2v1.1c0,1.8-1.1,3.4-2.8,4.1
					c-1.7,0.7-3.6,0.2-4.9-1.1c-4.8-5.2-10.4-7.7-17.2-7.7c-10.5,0-18.2,1.4-22.9,4.1c-5.5,3-10.5,7.8-14.9,14.4
					c-1.1,1.6-3.1,2.3-5,1.8c-1.9-0.6-3.1-2.3-3.1-4.2V11.6h-36.7v57.1c0,1.7-0.9,3.2-2.4,3.9s-3.3,0.6-4.6-0.4
					c-2.8-2.1-6-3.9-9.5-5.6c-8.1-3.6-18.7-5.4-31.5-5.4c-12.3,0-23.2,4-33.4,12.1c-0.3,0.2-0.5,0.5-0.8,0.8
					c-0.2,0.2-0.5,0.5-0.7,0.7c-1.3,1.2-3.2,1.5-4.8,0.8c-1.6-0.7-2.6-2.3-2.6-4v-5.1h-36.7c-0.1,109.6-2.7,116.1-3.9,118.6
					c-4.6,10.6-12.3,12.8-18.1,12.8c-5.7,0-15.2-2.8-15.2-21.4l-0.3-13V66.5h-36.8c-0.2,1.5-1.2,2.9-2.6,3.5
					c-1.6,0.7-3.5,0.4-4.8-0.9c-4.3-4.1-9.5-6.1-15.8-6.1c-5,0-9.7,0.5-13.8,1.6c-3.7,1-7,2.4-9.7,4c-5.7,4.3-10.5,9.4-14.3,15.1
					c-0.8,1.3-2.3,2.1-3.8,2c-1.5-0.1-2.9-0.9-3.7-2.2c-2.1-3.8-4.4-6.9-6.7-9.4l-6.1-6.7c-4.8-3.2-10.3-4.8-16.7-4.8
					c-7.1,0-13.3,2-19,6.1c-6.3,4.9-11.2,9.9-14.4,14.9c-1.1,1.6-3.1,2.4-5,1.8c-1.9-0.6-3.2-2.3-3.2-4.2V66.5h-31.8v155.9h34.1
					c0.1-96.8,1.9-114.3,3.5-118.6c0.1-0.2,0.1-0.4,0.2-0.5c4.3-8.2,10-12.3,16.8-12.3c4.7,0,12.9,2,14.9,15.4
					c0.6,3.7,0.9,9.7,0.9,18.2v97.8h33.8c0.1-115.5,4.1-121.1,6.1-123.8c0.1-0.1,0.1-0.2,0.2-0.3c4.2-4.9,9.5-7.4,15.9-7.4
					c6.1,0,13.5,3.6,13.5,20.8v110.7H476c0-1.7,1.1-3.3,2.7-4c1.6-0.7,3.5-0.4,4.8,0.8c4.5,4.3,10,6.4,16.7,6.4
					c10.3,0,18.5-1.9,24.4-5.7c6.4-4.6,11.6-9.6,15.6-15c1.1-1.5,3.1-2.2,4.9-1.6c1.8,0.6,3,2.3,3,4.2v14.9h34.4v-3.2
					c0-1.7,1-3.2,2.5-4c0.7-0.3,1.3-0.5,2-0.5c1,0,1.9,0.3,2.7,0.9c2.1,1.6,4.2,3,6.4,4.3c4,2.3,9.1,4,15.3,5.1c0.1,0,0.2,0,0.3,0.1
					c5.3,1.3,11.8,1.9,19.4,1.9c13.3,0,25-3.8,34.8-11.3c1.3-1,3.1-1.2,4.6-0.5c1.5,0.7,2.5,2.3,2.5,4v3.2h36.7
					c0-97,1.9-114.6,3.5-118.9c0-0.1,0.1-0.2,0.1-0.3c4.6-10.4,11.9-12.6,17.2-12.6c4.8,0,13.1,2,15.2,15.4
					c0.6,3.4,0.9,8.4,0.9,15.3v101h70.6c0-83,1.3-97.4,2.2-101c0-0.2,0.1-0.4,0.2-0.5c4.2-10.6,9.8-15.9,16.7-15.9
					c0.1,0,0.1,0,0.2,0l0.3,0c1.3,0.1,2.4,0.7,3.2,1.6c0.8,1,1.1,2.3,0.9,3.5c-1.4,8.3-2.1,17.2-2.1,26.4l0.3,17.3l0.9,13l0.9,10.6
					l1.4,9.7c1.8,8.6,5.8,16.9,12,24.6c5.8,7.6,11.9,11.7,18.8,12.7l12.3,1.7l32.5,0.6c11.6,0,20.5-7.8,27.1-23.8
					c0.7-1.6,2.1-2.6,3.8-2.7c1.7-0.1,3.3,0.8,4.1,2.3c1.8,3.2,3.8,6.3,6.2,9.3c5.8,7.6,11.9,11.7,18.8,12.7l12.3,1.7l32.5,0.6
					c8.9,0,16.1-4.6,22.1-13.9c1-1.7,3.1-2.4,5-1.9c1.9,0.6,3.2,2.3,3.2,4.2v7.2h34.1c0-96.8,1.9-114.3,3.5-118.6
					c0.1-0.2,0.2-0.4,0.2-0.5c4.3-8.2,10-12.3,16.8-12.3c4.7,0,12.9,2,14.9,15.4c0.6,3.7,0.9,9.7,0.9,18.2v97.8h33.8
					c0.1-115.5,4.1-121.1,6.1-123.8c0.1-0.1,0.1-0.2,0.2-0.3c4.2-4.9,9.5-7.4,15.9-7.4c6.2,0,13.5,3.6,13.5,20.8V222.5z"/>
				<path class="st0" d="M1020.4,127.8v28c0,0.1,0,0.2,0,0.3l-0.9,12.8c0,0.1,0,0.1,0,0.2l-1.5,13.2c0,0.1,0,0.3-0.1,0.4
					c-0.9,4.1-3.6,16.4-12.4,17.8l-4.1,0.6c-0.2,0-0.4,0-0.6,0c-4.1,0-9.8-1.5-14.3-8.8c-3.1-5.1-4.7-12.1-4.7-20.6l-0.6-18.3
					l-0.3-12.9c0,0,0-0.1,0-0.1v-22.2c0-0.2,0-0.5,0-0.7l1.8-11.1c0-0.1,0-0.2,0-0.3c3.5-15.6,11.9-18.9,18.3-18.9
					c6.6,0,15.1,3.8,18,21.8C1019.7,111.1,1020.4,115.4,1020.4,127.8z M1011.5,155.7v-27.9c0-12-0.7-15.6-1-16.5
					c-0.1-0.2-0.1-0.4-0.1-0.6c-2.3-14.7-7.6-14.7-9.4-14.7c-1.9,0-7,0-9.7,11.9l-1.7,10.6v21.8l0.3,12.8l0.6,18.4
					c0,0.1,0,0.1,0,0.1c0,6.9,1.2,12.4,3.4,16.1c2.4,3.9,4.8,4.5,6.5,4.6l3.8-0.5c1-0.1,3.2-2.6,5-10.7l1.4-12.8L1011.5,155.7z"/>
				<path class="st0" d="M915.6,127.8v28c0,0.1,0,0.2,0,0.3l-0.9,12.8c0,0.1,0,0.1,0,0.2l-1.5,13.2c0,0.1,0,0.3-0.1,0.4
					c-0.9,4.1-3.6,16.4-12.4,17.8l-4.1,0.6c-0.2,0-0.4,0-0.6,0c-4.1,0-9.8-1.5-14.3-8.8c-3.1-5.1-4.7-12.1-4.7-20.6l-0.6-18.3
					l-0.3-12.9c0,0,0-0.1,0-0.1v-22.2c0-0.2,0-0.5,0-0.7l1.8-11.1c0-0.1,0-0.2,0.1-0.3c3.5-15.6,11.9-18.9,18.3-18.9
					c6.6,0,15.1,3.8,18.1,21.8C914.9,111.1,915.6,115.4,915.6,127.8z M906.8,155.7v-27.9c0-12-0.7-15.6-1-16.5
					c-0.1-0.2-0.1-0.4-0.1-0.6C903.3,96,898,96,896.3,96c-1.9,0-7,0-9.7,11.9l-1.7,10.6v21.8h0l0.3,12.8l0.6,18.4c0,0.1,0,0.1,0,0.1
					c0,6.9,1.2,12.4,3.4,16.1c2.4,3.9,4.8,4.5,6.5,4.6l3.8-0.5c1-0.1,3.2-2.6,5-10.7l1.4-12.8L906.8,155.7z"/>
				<path class="st0" d="M672.9,110.6v28.1c0,1.6-0.9,3.1-2.4,3.9c-0.6,0.4-1.3,0.5-2,0.5c-0.9,0-1.8-0.3-2.5-0.8l-5.7-4l-41.5-20.3
					c-0.3-0.2-0.7-0.4-1-0.6c-5.7-4.9-8.5-10.3-8.5-15.9c0-5.8,2.3-10.7,6.6-14.2c3.9-3.2,8.9-4.8,14.8-4.8
					c4.8,0,11.3,1.9,15.2,10.8c0,0.1,0,0.1,0.1,0.2c1.3,3.5,2.2,7.8,2.5,12.6h20.1C671,106.2,672.9,108.2,672.9,110.6z M664.1,130.4
					V115h-20c-2.4,0-4.4-2-4.4-4.4c0-5.6-0.7-10.3-2-13.8c-2.1-4.8-4.8-5.4-7-5.4c-3.9,0-6.9,0.9-9.2,2.8c-2.3,1.9-3.3,4.2-3.3,7.4
					c0,2.8,1.7,5.8,5.1,8.9L664.1,130.4z"/>
				<path class="st0" d="M649.1,183.9c0,8.9-4.1,13.5-7.5,15.7c-4.4,3-9.5,4.5-15,4.5c-4.8,0-11.4-2.1-16-11.9
					c-0.1-0.2-0.2-0.4-0.2-0.5l-2.3-7.3c-0.1-0.3-0.2-0.6-0.2-0.9l-0.5-4.8h-20.5c-2.4,0-4.4-2-4.4-4.4v-31.4c0-1.8,1.1-3.4,2.7-4.1
					s3.5-0.4,4.8,0.9c1.1,1.1,2.1,2,3.2,2.9c2,1.6,9.5,6.2,34.6,19.1C642.3,169.5,649.1,176.6,649.1,183.9z M636.8,192.2
					c1.5-1,3.5-2.8,3.5-8.2c0-1.3-1.2-6.2-16.7-14.5c-19-9.8-27.9-14.8-32.3-17.5v17.9h20.1c2.3,0,4.2,1.7,4.4,4l0.8,8.3l2.1,6.6
					c2.8,5.9,5.8,6.6,7.9,6.6c3.8,0,7.1-1,10.1-3C636.7,192.2,636.8,192.2,636.8,192.2z"/>
			</g>
		</g>
	</g>
</g>
</svg>
